<?xml version="1.0" encoding="utf-8"?>
<!-- Generator: Adobe Illustrator 27.7.0, SVG Export Plug-In . SVG Version: 6.00 Build 0)  -->
<svg version="1.1" id="レイヤー_1" xmlns="http://www.w3.org/2000/svg" xmlns:xlink="http://www.w3.org/1999/xlink" x="0px"
	 y="0px" viewBox="0 0 16 16" style="enable-background:new 0 0 16 16;" xml:space="preserve">
<style type="text/css">
	.st0{fill:#258FC7;}
	.st1{fill:#BDCF24;}
	.st2{fill:#EDD723;}
	.st3{fill:#E8971F;}
	.st4{fill:#DD5519;}
	.st5{fill:#4B9E36;}
</style>
<g id="base">
</g>
<g id="logo">
	<g>
		<path class="st0" d="M10.7,3l2.6-1.1c0.2-0.1,0.5,0.1,0.4,0.3L13.1,5c0,0.2-0.2,0.3-0.3,0.2l-2.2-1.8C10.5,3.3,10.5,3.1,10.7,3z"
			/>
		<path class="st1" d="M6.9,5.5L8.7,7c0.2,0.1,0.5,0,0.5-0.3L9.8,4c0-0.2-0.2-0.4-0.4-0.3L7,4.7C6.7,4.9,6.6,5.3,6.9,5.5z"/>
		<path class="st2" d="M2.5,7.6l2.1,1.7C4.7,9.4,5,9.3,5.1,9l0.6-3c0-0.2-0.2-0.4-0.4-0.3L2.7,6.8C2.3,6.9,2.2,7.4,2.5,7.6z"/>
		<path class="st3" d="M5.6,10l2.1,1.7c0.2,0.2,0.5,0,0.6-0.3l0.6-3c0-0.2-0.2-0.4-0.4-0.3L5.8,9.1C5.4,9.3,5.3,9.8,5.6,10z"/>
		<path class="st4" d="M8.5,12.4l2.1,1.7c0.2,0.2,0.5,0,0.6-0.3l0.6-3c0-0.2-0.2-0.4-0.4-0.3l-2.6,1.1C8.4,11.8,8.3,12.2,8.5,12.4z"
			/>
		<path class="st5" d="M9.9,7.9l1.9,1.5c0.2,0.1,0.5,0,0.5-0.3l0.5-2.7c0-0.2-0.2-0.4-0.4-0.3l-2.4,1C9.8,7.3,9.7,7.7,9.9,7.9z"/>
	</g>
</g>
</svg>
