<svg width="381" height="48" viewBox="0 0 381 48" fill="none" xmlns="http://www.w3.org/2000/svg">
<g clip-path="url(#clip0_711_838)">
<path d="M103.211 37.785C100.556 37.5093 98.1692 37.0813 96.1015 36.4211C97.4872 35.1151 98.7931 33.5698 100.056 31.5964C100.215 31.3207 100.331 31.1248 100.331 30.8854C100.331 30.6895 100.215 30.4501 99.9322 30.1744L97.6758 28.0414L94.9842 28.2373H89.405C89.7242 27.7221 89.9999 27.207 90.2321 26.6919H94.4255L100.244 26.808L100.52 26.5323L100.404 21.6641V17.7899L100.498 14.097L100.222 13.8213L94.3167 13.8068H88.2224L84.1885 13.727C84.4642 13.328 84.856 12.6895 85.1389 12.2977H96.7327L100.295 12.3195L100.571 12.0438L100.614 8.44524L100.338 8.16955L96.7254 8.18406H87.4678C87.7871 7.50933 88.0628 6.84186 88.2949 6.20341L88.0555 5.88418L83.7822 4.69434L83.3832 4.81042C82.4763 7.37874 80.8874 9.95431 78.8705 12.2107L77.405 10.8685L75.388 10.9845V5.28926L75.1486 4.97003H70.3602L70.0845 5.24573V10.941L66.1305 10.8612L65.8911 11.1006V15.49L66.1305 15.8092L70.9552 15.7294H73.2913C71.5646 19.8358 69.0906 23.3473 65.3687 26.5178C65.1728 26.6847 65.1293 26.9676 65.2744 27.178L67.5597 30.5662C67.7194 30.8056 67.9152 30.9217 68.1111 30.9217C68.307 30.9217 68.5029 30.8056 68.7859 30.6024C69.2212 30.2469 69.6565 29.8479 70.0918 29.4126V33.207L69.9032 42.4356C69.9032 42.7113 70.1208 42.9362 70.3965 42.9362H75.0906C75.3663 42.9362 75.5839 42.7113 75.5839 42.4356L75.3953 33.207V29.964C76.07 30.5589 76.781 31.1901 77.5718 31.9809H78.0071L80.8584 28.6581L80.8221 28.3026C80.1184 27.7657 79.4364 27.2796 78.7617 26.8153C78.798 26.779 78.8197 26.7645 78.8632 26.7209C79.8137 25.6907 80.6408 24.5879 81.7145 22.8467L81.6782 22.4912L78.3554 20.5903L77.9999 20.6702C77.2236 22.259 76.5924 23.3183 75.5259 24.7403C75.4824 24.7185 75.4461 24.6895 75.4098 24.6677V22.9265C76.9116 20.5903 78.1813 18.1018 79.284 15.5263L80.6262 16.9918C80.8221 17.1877 80.9818 17.2675 81.0978 17.2675C81.2574 17.2675 81.4171 17.1877 81.6492 16.9483C81.8886 16.7088 82.0845 16.4767 82.324 16.2373L82.3602 17.7826V21.6569L82.2441 26.525L82.5198 26.8007L84.9358 26.7645C83.1801 29.5504 80.8076 31.7415 77.5211 33.8092C77.3324 33.9253 77.2961 34.1937 77.4558 34.3461L80.1111 36.9652C80.307 37.1611 80.4666 37.2409 80.6625 37.2409C80.7786 37.2409 80.9019 37.2046 81.0543 37.0813C82.3167 36.2107 83.5065 35.2602 84.6166 34.23C85.2913 35.1006 86.0821 35.9277 86.9092 36.646C84.3917 37.5601 81.33 38.068 77.3614 38.4235C77.151 38.4452 77.0204 38.6774 77.1293 38.8588L79.197 42.4573C79.4364 42.8926 79.6323 42.8564 80.1039 42.8128C84.7327 42.2614 88.3747 41.3473 91.4146 39.7294C94.1063 41.0716 97.1099 42.0656 100.273 42.6532C100.868 42.733 100.948 42.6895 101.18 42.2977L103.473 38.3146C103.603 38.0825 103.451 37.7995 103.19 37.7705L103.211 37.785ZM87.7508 17.4706C87.7508 17.3836 87.8233 17.311 87.9104 17.311H95.0277C95.1148 17.311 95.1873 17.3836 95.1873 17.4706V18.5371C95.1873 18.6242 95.1148 18.6968 95.0277 18.6968H87.9104C87.8233 18.6968 87.7508 18.6242 87.7508 18.5371V17.4706ZM87.7508 22.97V21.86C87.7508 21.7729 87.8233 21.7004 87.9104 21.7004H95.0277C95.1148 21.7004 95.1873 21.7729 95.1873 21.86V22.97C95.1873 23.0571 95.1148 23.1296 95.0277 23.1296H87.9104C87.8233 23.1296 87.7508 23.0571 87.7508 22.97ZM91.3566 34.3243C90.2901 33.6496 89.3397 32.8588 88.4255 31.9882H93.7653C93.0543 32.8588 92.2635 33.6496 91.3493 34.3243H91.3566Z" fill="#212C30"/>
<path d="M139.4 23.6153H143.398L149.964 23.5935L150.24 23.8692V27.3009L149.964 27.5766L143.398 27.6129H139.4V29.1945H148.107L154.672 29.2308L154.948 29.5065V33.1485L154.672 33.4242L148.107 33.3082H142.215C146.003 35.1437 149.434 36.5585 154.585 37.6105C154.839 37.6612 154.963 37.9514 154.81 38.1618L152.119 41.949C152.003 42.1449 151.879 42.2247 151.647 42.2247C151.531 42.2247 151.328 42.2247 151.132 42.1449C145.828 40.6431 142.81 38.8003 139.328 36.3843L139.371 42.4569C139.371 42.6818 139.19 42.8704 138.965 42.8704H134.496C134.271 42.8704 134.09 42.689 134.09 42.4714L133.995 36.6238C130.513 38.9164 127.72 40.5125 122.931 42.0506C122.692 42.1304 122.532 42.1667 122.416 42.1667C122.097 42.1667 121.981 42.0071 121.821 41.8112L119.122 38.3287C118.977 38.1401 119.079 37.8716 119.304 37.8136C124.498 36.4786 127.538 35.2163 131.028 33.3009H125.333L118.963 33.3517L118.687 33.076V29.4992L118.963 29.2235L125.333 29.1872H133.915V27.6056H130.194L123.628 27.5621L123.352 27.2864V23.8837L123.628 23.608H130.194H133.915V22.0627H121.379L121.103 21.7797V18.2247L121.379 17.949H128.895C128.699 17.0421 128.423 16.1715 128.14 15.3009H125.093L118.723 15.417L118.448 15.1413V11.3686L118.723 11.0929L123.671 11.0712C123.2 9.88131 122.641 8.69872 122.169 7.86438L122.365 7.54516L126.522 6.15943L126.842 6.27551C127.596 7.58143 128.503 9.43875 129.178 11.1002H130.44V5.32509L130.716 5.00586H135.345L135.664 5.28155V11.1002H137.601V5.32509L137.877 5.00586H142.665L142.984 5.28155V11.1002H144.174C145.045 9.40247 145.756 7.58143 146.155 6.1159L146.554 5.95628L151.422 7.5379L151.538 7.93693C151.103 8.80755 150.472 9.95386 149.797 11.0639L154.701 11.0857L154.977 11.3614V15.134L154.701 15.4097L148.331 15.2936H146.039C145.763 16.2005 145.364 17.0712 145.009 17.9418H152.206L152.481 18.2175V21.787L152.206 22.0627H145.64H139.429V23.608L139.4 23.6153ZM133.509 15.3082C133.865 16.1788 134.14 17.0494 134.416 17.9563H139.48C139.72 17.0857 139.915 16.215 140.111 15.3082H133.502H133.509Z" fill="#212C30"/>
<path d="M203.202 23.3402C203.282 25.0017 203.318 26.6268 203.478 28.2882C204.073 26.9025 204.508 25.4805 204.863 24.1311L205.183 23.9714L208.389 26.148L208.549 26.547C207.519 29.5144 206.133 32.2858 204.472 34.8179C204.747 35.8046 205.045 36.5954 205.241 36.5954C205.574 36.5954 206.307 35.9497 206.67 33.2217C206.706 32.9606 207.018 32.8372 207.221 33.0041L209.354 34.6873C209.79 35.0428 209.949 35.2387 209.869 35.7175C209.238 40.7453 207.359 42.4575 205.103 42.4575C203.681 42.4575 202.172 41.7465 200.989 39.2145C199.879 40.3608 198.653 41.391 197.391 42.3414C197.151 42.5373 196.919 42.6171 196.716 42.6171C196.513 42.6171 196.324 42.5373 196.085 42.3414L193.524 40.2592C193.32 40.0924 193.335 39.7876 193.553 39.6425C194.119 39.2508 194.684 38.83 195.221 38.3874L192.965 38.3076H185.804C185.586 38.3076 185.412 38.1262 185.42 37.9086L185.601 33.0041V29.05L185.485 24.9726L185.761 24.697L189.519 24.813H193.241L196.999 24.697L197.238 24.9726L197.122 28.8469V33.8747L197.202 36.6026C197.993 35.8118 198.784 34.9775 199.458 34.1069C198.784 30.5446 198.588 26.946 198.428 23.3475H190.121L184.701 23.4636L184.426 23.2242V19.4297L184.665 19.154L187.154 19.1903C186.798 17.8844 186.399 16.4986 185.848 15.1564L185.964 14.8372L189.171 13.6474L189.49 13.8868C190.085 15.1129 190.556 16.3028 191.071 18.0005L190.912 18.356L188.46 19.2266L190.121 19.2629H191.586C192.102 17.4055 192.493 15.541 192.776 13.6474L192.856 13.5676H189.214L185.296 13.6837L185.021 13.4442V10.593H183.794V28.992L183.983 42.5373C183.983 42.7477 183.816 42.9219 183.606 42.9219H179.427C179.216 42.9219 179.05 42.7477 179.05 42.5373L179.166 34.8106C177.308 35.4853 175.052 36.1165 172.52 36.8275L172.164 36.6317L170.822 32.1625L171.018 31.807C171.693 31.6909 172.281 31.6111 172.875 31.4878V10.6002H171.453L171.178 10.3245V6.21086L171.533 6.01497H185.1L185.376 6.29067V9.3741L189.018 9.35959V6.36322L189.258 6.08752H193.611L193.886 6.36322V9.35959L197.289 9.3741L197.528 9.56999V13.4878L197.289 13.6837L193.451 13.5676L196.694 14.7937L196.854 15.1492C196.375 16.6945 195.983 18.0367 195.548 19.2629H198.319C198.239 15.7441 198.203 11.391 198.203 5.85536L198.443 5.53613H202.796L203.071 5.81183V10.8759L206.075 9.09841L206.351 9.21449C207.657 11.391 208.172 12.6171 208.767 14.5978L208.651 14.9533L205.052 17.1298L204.776 16.9702C204.305 15.1927 203.826 13.6111 203.079 11.9497C203.115 14.4019 203.115 16.8179 203.158 19.2701L208.817 19.154L209.093 19.3934V23.2314L208.817 23.4708L203.238 23.3547L203.202 23.3402ZM179.231 13.9376V10.7526C179.231 10.6292 179.129 10.5277 179.006 10.5277H177.482C177.359 10.5277 177.258 10.6292 177.258 10.7526V13.9376C177.258 14.0609 177.359 14.1625 177.482 14.1625H179.006C179.129 14.1625 179.231 14.0609 179.231 13.9376ZM177.25 18.6244V21.969C177.25 22.0924 177.352 22.1939 177.475 22.1939H178.999C179.122 22.1939 179.224 22.0924 179.224 21.969V18.6244C179.224 18.5011 179.122 18.3995 178.999 18.3995H177.475C177.352 18.3995 177.25 18.5011 177.25 18.6244ZM177.25 26.6558V30.3342C177.25 30.4793 177.388 30.5881 177.533 30.5591C178.041 30.4358 178.534 30.3124 179.05 30.1963C179.151 30.1746 179.224 30.0803 179.224 29.9714V26.6631C179.224 26.5398 179.122 26.4382 178.999 26.4382H177.475C177.352 26.4382 177.25 26.5398 177.25 26.6631V26.6558ZM192.682 28.2882H190.063C189.932 28.2882 189.831 28.3898 189.831 28.5204V29.6377C189.831 29.7683 189.932 29.8699 190.063 29.8699H192.682C192.813 29.8699 192.914 29.7683 192.914 29.6377V28.5204C192.914 28.3898 192.813 28.2882 192.682 28.2882ZM189.831 33.4249V34.5857C189.831 34.7163 189.932 34.8179 190.063 34.8179H192.682C192.813 34.8179 192.914 34.7163 192.914 34.5857V33.4249C192.914 33.2943 192.813 33.1927 192.682 33.1927H190.063C189.932 33.1927 189.831 33.2943 189.831 33.4249Z" fill="#212C30"/>
<path d="M246.232 7.04483C246.196 11.3181 246.072 14.757 245.717 17.9638C248.8 27.7365 254.343 32.8368 262.687 37.1899L258.929 42.0944C258.813 42.254 258.653 42.3338 258.493 42.3338C258.334 42.3338 258.138 42.254 257.898 42.1379C251.332 38.699 246.305 33.2359 243.577 26.9094C241.161 33.5914 235.901 39.0545 229.016 42.4136C228.82 42.4934 228.66 42.5732 228.501 42.5732C228.384 42.5732 228.261 42.4934 228.101 42.3773L224.147 37.9445C231.628 34.462 236.684 29.6373 238.505 22.5926C239.412 19.0738 239.971 14.2056 239.811 6.84894L240.087 6.57324L245.942 6.76913L246.218 7.04483H246.232Z" fill="#212C30"/>
<path d="M32.4015 4.79549L43.0231 0.0869031C43.7051 -0.217813 44.3363 0.282792 44.1911 1.01556L42.0001 12.4279C41.8768 13.0663 41.1367 13.4436 40.6942 13.0954L32.046 6.21749C31.6035 5.86925 31.8066 5.06393 32.4015 4.79549Z" fill="#258FC7"/>
<path d="M18.37 11.3909L27.5986 7.35703C28.4837 6.97251 29.2818 7.61822 29.0931 8.56864L26.9964 19.1611C26.7933 20.1769 25.6179 20.7718 24.9214 20.2059L17.6155 14.3075C16.7086 13.5747 17.1367 11.9205 18.3628 11.3836L18.37 11.3909Z" fill="#BDCF24"/>
<path d="M1.34957 19.3709L11.4415 14.9598C12.4064 14.539 13.2843 15.2428 13.0811 16.2802L10.7885 27.8667C10.5709 28.9767 9.2867 29.6297 8.51765 29.013L0.529743 22.5704C-0.456956 21.7724 0.000117827 19.9586 1.34957 19.3709Z" fill="#EDD723"/>
<path d="M13.4074 28.5418L23.4993 24.1307C24.4643 23.7099 25.3421 24.4137 25.139 25.4511L22.8464 37.0376C22.6287 38.1476 21.3446 38.8006 20.5755 38.1839L12.5876 31.7341C11.6009 30.936 12.058 29.1222 13.4074 28.5346V28.5418Z" fill="#E8971F"/>
<path d="M24.9213 38.119L35.0132 33.7078C35.9782 33.2871 36.8561 33.9908 36.6529 35.0283L34.3603 46.6147C34.1426 47.7248 32.8585 48.3777 32.0894 47.7611L24.1015 41.3112C23.1148 40.5132 23.5719 38.6994 24.9213 38.1117V38.119Z" fill="#DD5519"/>
<path d="M30.1161 20.7278L39.3447 16.6939C40.2298 16.3094 41.0279 16.9551 40.8392 17.9056L38.7425 28.4981C38.5393 29.5138 37.364 30.1087 36.6675 29.5428L29.3616 23.6444C28.4547 22.9116 28.8828 21.2574 30.1089 20.7205L30.1161 20.7278Z" fill="#4B9E36"/>
<path d="M286.244 7.66142H287.891V7.98065H287.913C288.276 7.71221 288.769 7.53809 289.306 7.53809C290.691 7.53809 291.874 8.64812 291.874 10.3313C291.874 12.0145 290.612 13.2769 289.008 13.2769C288.587 13.2769 288.232 13.1898 287.942 13.052L287.92 13.0665V15.5913H286.237V7.66142H286.244ZM288.791 11.9057C289.698 11.9057 290.184 11.2527 290.184 10.4329C290.184 9.61306 289.698 8.96009 288.856 8.96009C288.479 8.96009 288.145 9.1052 287.927 9.27932V11.6808C288.152 11.8041 288.471 11.9057 288.791 11.9057Z" fill="#212C30"/>
<path d="M292.941 7.66156H294.588V8.39433L294.61 8.40884C294.987 7.87921 295.517 7.60352 296.191 7.60352C296.3 7.60352 296.423 7.61077 296.547 7.64705V9.22867C296.416 9.19239 296.249 9.17063 296.097 9.17063C295.509 9.17063 295.023 9.34475 294.624 9.81633V13.161H292.941V7.66881V7.66156Z" fill="#212C30"/>
<path d="M297.04 10.4111C297.04 8.79322 298.339 7.53809 300.073 7.53809C301.807 7.53809 303.105 8.79322 303.105 10.4111C303.105 12.029 301.807 13.2769 300.073 13.2769C298.339 13.2769 297.04 12.0218 297.04 10.4111ZM301.429 10.4111C301.429 9.62757 300.842 8.99637 300.08 8.99637C299.318 8.99637 298.73 9.62757 298.73 10.4111C298.73 11.1947 299.318 11.8259 300.08 11.8259C300.842 11.8259 301.429 11.1947 301.429 10.4111Z" fill="#212C30"/>
<path d="M307.836 12.8346L307.814 12.8201C307.451 13.1103 306.951 13.2772 306.406 13.2772C305.057 13.2772 303.867 12.2107 303.867 10.5057C303.867 8.80074 305.101 7.53835 306.711 7.53835C307.132 7.53835 307.473 7.63992 307.778 7.76326L307.799 7.74875V4.69434H309.483V13.1611H307.836V12.8419V12.8346ZM307.799 11.5795V9.17801C307.553 9.04742 307.27 8.9531 306.936 8.9531C306.029 8.9531 305.565 9.64234 305.565 10.4477C305.565 11.253 306.029 11.8987 306.871 11.8987C307.248 11.8987 307.56 11.7536 307.799 11.5795Z" fill="#212C30"/>
<path d="M314.496 12.7329H314.474C314.046 13.0666 313.48 13.277 312.849 13.277C312.218 13.277 311.732 13.0884 311.376 12.6894C311.021 12.2903 310.89 11.8333 310.89 11.0715V7.66155H312.573V10.7958C312.573 11.1948 312.631 11.4415 312.784 11.6011C312.936 11.768 313.205 11.8333 313.458 11.8333C313.836 11.8333 314.191 11.6664 314.474 11.456V7.6543H316.157V13.1464H314.496V12.7256V12.7329Z" fill="#212C30"/>
<path d="M320.314 13.2769C318.479 13.2769 317.224 12.0798 317.224 10.4184C317.224 8.75695 318.588 7.53809 320.358 7.53809C320.953 7.53809 321.555 7.68319 321.976 7.95163V9.44619C321.54 9.15598 321.033 8.96735 320.488 8.96735C319.538 8.96735 318.907 9.57678 318.907 10.4111C318.907 11.2455 319.553 11.8549 320.51 11.8549C321.062 11.8549 321.664 11.6445 322.019 11.3688V12.8634C321.577 13.1536 320.924 13.2842 320.314 13.2842V13.2769Z" fill="#212C30"/>
<path d="M325.988 13.2769C324.16 13.2769 322.883 12.1669 322.883 10.4184C322.883 8.66989 324.189 7.53809 325.727 7.53809C327.098 7.53809 328.339 8.40145 328.339 10.2733C328.339 10.4619 328.331 10.7086 328.302 10.8464H324.595C324.762 11.601 325.379 11.942 326.191 11.942C326.808 11.942 327.468 11.717 328.041 11.3688V12.7836C327.519 13.0955 326.714 13.2696 325.981 13.2696L325.988 13.2769ZM326.793 9.80894C326.706 9.13422 326.249 8.82225 325.705 8.82225C325.161 8.82225 324.711 9.15598 324.588 9.80894H326.793Z" fill="#212C30"/>
<path d="M333.113 12.8346L333.091 12.8201C332.728 13.1103 332.227 13.2772 331.683 13.2772C330.334 13.2772 329.144 12.2107 329.144 10.5057C329.144 8.80074 330.377 7.53835 331.988 7.53835C332.409 7.53835 332.75 7.63992 333.055 7.76326L333.076 7.74875V4.69434H334.76V13.1611H333.113V12.8419V12.8346ZM333.076 11.5795V9.17801C332.83 9.04742 332.547 8.9531 332.213 8.9531C331.306 8.9531 330.842 9.64234 330.842 10.4477C330.842 11.253 331.306 11.8987 332.148 11.8987C332.525 11.8987 332.837 11.7536 333.076 11.5795Z" fill="#212C30"/>
<path d="M338.786 4.69434H340.469V7.95189L340.491 7.9664C340.876 7.6762 341.354 7.54561 341.877 7.54561C343.248 7.54561 344.438 8.57583 344.438 10.3026C344.438 12.0293 343.197 13.2844 341.478 13.2844C340.883 13.2844 340.368 13.1393 339.925 12.9289L338.786 13.2046V4.69434ZM341.347 11.9059C342.211 11.9059 342.74 11.2747 342.74 10.3896C342.74 9.55528 342.261 8.96036 341.42 8.96036C341.035 8.96036 340.701 9.09095 340.469 9.25782V11.6955C340.694 11.8189 341.013 11.9059 341.347 11.9059Z" fill="#212C30"/>
<path d="M345.642 15.591L347.071 12.5366L344.858 7.66113H346.629L347.195 9.0251C347.441 9.61276 347.673 10.1859 347.891 10.7663H347.913C348.16 10.1569 348.399 9.58374 348.653 8.99608L349.226 7.66839H350.902L347.354 15.5983H345.635L345.642 15.591Z" fill="#212C30"/>
<path d="M319.959 34.7372C319.959 34.6212 319.821 34.5486 319.719 34.6139C319.095 35.0202 318.363 35.2524 317.579 35.2524C315.722 35.2524 314.503 33.9537 314.503 32.2777C314.503 30.6018 315.729 29.2959 317.492 29.2959C318.254 29.2959 319.001 29.5353 319.589 29.8908C319.69 29.9488 319.821 29.8835 319.821 29.7675V28.6066C319.821 28.5559 319.792 28.5051 319.741 28.4761C319.095 28.1496 318.305 27.9609 317.485 27.9609C314.829 27.9609 313.023 29.8908 313.023 32.2995C313.023 34.7082 314.873 36.5946 317.492 36.5946C318.319 36.5946 319.19 36.4132 319.872 36.0359C319.915 36.0141 319.944 35.9634 319.944 35.9126V34.7372H319.959Z" fill="#070001"/>
<path d="M321.381 33.6279C321.381 35.3039 322.701 36.6025 324.464 36.6025C326.227 36.6025 327.548 35.3039 327.548 33.6279C327.548 31.952 326.227 30.6533 324.464 30.6533C322.701 30.6533 321.381 31.952 321.381 33.6279ZM322.781 33.6279C322.781 32.6412 323.499 31.8794 324.464 31.8794C325.429 31.8794 326.147 32.6412 326.147 33.6279C326.147 34.6146 325.429 35.3764 324.464 35.3764C323.499 35.3764 322.781 34.6146 322.781 33.6279Z" fill="#070001"/>
<path d="M330.537 27.6348H329.427C329.347 27.6348 329.282 27.6997 329.282 27.7799V36.3264C329.282 36.4066 329.347 36.4715 329.427 36.4715H330.537C330.617 36.4715 330.682 36.4066 330.682 36.3264V27.7799C330.682 27.6997 330.617 27.6348 330.537 27.6348Z" fill="#070001"/>
<path d="M332.409 33.6279C332.409 35.3039 333.729 36.6025 335.492 36.6025C337.255 36.6025 338.576 35.3039 338.576 33.6279C338.576 31.952 337.255 30.6533 335.492 30.6533C333.729 30.6533 332.409 31.952 332.409 33.6279ZM333.809 33.6279C333.809 32.6412 334.527 31.8794 335.492 31.8794C336.457 31.8794 337.175 32.6412 337.175 33.6279C337.175 34.6146 336.457 35.3764 335.492 35.3764C334.527 35.3764 333.809 34.6146 333.809 33.6279Z" fill="#070001"/>
<path d="M340.317 36.3266C340.317 36.4064 340.382 36.4717 340.462 36.4717H341.572C341.652 36.4717 341.717 36.4064 341.717 36.3266V32.9384C341.717 32.9384 341.724 32.8804 341.746 32.8586C342.138 32.329 342.66 32.0533 343.299 32.0533C343.408 32.0533 343.495 32.0605 343.582 32.075C343.676 32.0896 343.763 32.0243 343.763 31.9299V30.8852C343.763 30.8199 343.72 30.7619 343.654 30.7474C343.56 30.7328 343.473 30.7256 343.379 30.7256C342.711 30.7256 342.131 31.0303 341.739 31.5817C341.739 31.5817 341.724 31.5889 341.717 31.5817C341.717 31.5817 341.71 31.5744 341.71 31.5672V30.9215C341.71 30.8417 341.645 30.7764 341.565 30.7764H340.469C340.389 30.7764 340.324 30.8417 340.324 30.9215V36.3266H340.317Z" fill="#070001"/>
<path d="M350.909 36.4932C350.931 36.5513 350.982 36.5948 351.047 36.5948H352.389C352.454 36.5948 352.505 36.5513 352.527 36.4932L353.615 32.931C353.818 32.2417 354.014 31.5743 354.203 30.9213C354.203 30.9213 354.21 30.9068 354.217 30.9068C354.225 30.9068 354.232 30.9068 354.232 30.9213C354.413 31.5743 354.624 32.2635 354.827 32.9527L355.908 36.486C355.93 36.544 355.98 36.5876 356.046 36.5876H357.388C357.453 36.5876 357.511 36.544 357.526 36.486L360.029 28.2804C360.058 28.1861 359.985 28.0918 359.891 28.0918H358.701C358.636 28.0918 358.578 28.1353 358.563 28.1934L357.366 32.2127C357.148 32.9382 356.931 33.729 356.735 34.4546C356.735 34.4546 356.728 34.4691 356.72 34.4691C356.713 34.4691 356.706 34.4691 356.706 34.4546C356.496 33.7073 356.307 33.0543 356.053 32.2272L354.827 28.2006C354.805 28.1426 354.754 28.0991 354.689 28.0991H353.826C353.76 28.0991 353.702 28.1426 353.688 28.2006L352.462 32.22C352.244 32.9455 352.005 33.7508 351.809 34.4618C351.809 34.4618 351.801 34.4763 351.794 34.4763C351.787 34.4763 351.78 34.4763 351.78 34.4618C351.584 33.7363 351.366 32.9672 351.148 32.2345L349.951 28.2079C349.93 28.1498 349.879 28.1063 349.814 28.1063H348.558C348.464 28.1063 348.392 28.2006 348.421 28.2949L350.909 36.5005V36.4932Z" fill="#070001"/>
<path d="M361.988 28.9121C361.988 29.3909 362.38 29.7899 362.851 29.7899C363.323 29.7899 363.729 29.3909 363.729 28.9121C363.729 28.4332 363.337 28.0342 362.866 28.0342C362.394 28.0342 361.988 28.4332 361.988 28.9121ZM362.162 36.4574C362.162 36.5372 362.227 36.6025 362.307 36.6025H363.417C363.497 36.6025 363.562 36.5372 363.562 36.4574V30.9725C363.562 30.8927 363.497 30.8274 363.417 30.8274H362.307C362.227 30.8274 362.162 30.8927 362.162 30.9725V36.4574Z" fill="#070001"/>
<path d="M368.474 36.4575C368.474 36.5373 368.539 36.6026 368.619 36.6026H369.794C369.874 36.6026 369.94 36.5373 369.94 36.4575V29.5724C369.94 29.4926 370.005 29.4273 370.085 29.4273H372.559C372.638 29.4273 372.704 29.362 372.704 29.2822V28.2447C372.704 28.1649 372.638 28.0996 372.559 28.0996H365.884C365.804 28.0996 365.739 28.1649 365.739 28.2447V29.2822C365.739 29.362 365.804 29.4273 365.884 29.4273H368.336C368.416 29.4273 368.481 29.4926 368.481 29.5724V36.4575H368.474Z" fill="#070001"/>
<path d="M374.88 36.457C374.88 36.5368 374.946 36.6021 375.025 36.6021H376.135C376.215 36.6021 376.281 36.5368 376.281 36.457V32.7351C376.281 32.6989 376.295 32.6626 376.317 32.6408C376.687 32.2635 377.231 31.9516 377.782 31.9516C378.08 31.9516 378.334 32.0459 378.522 32.2708C378.682 32.4594 378.755 32.7134 378.755 33.2575V36.457C378.755 36.5368 378.82 36.6021 378.9 36.6021H380.01C380.09 36.6021 380.155 36.5368 380.155 36.457V33.0108C380.155 32.1547 380.002 31.6759 379.669 31.3059C379.313 30.9068 378.776 30.6964 378.167 30.6964C377.42 30.6964 376.781 31.0229 376.317 31.451C376.317 31.451 376.302 31.451 376.295 31.451C376.295 31.451 376.288 31.4437 376.288 31.4365V27.7799C376.288 27.7001 376.223 27.6348 376.143 27.6348H375.033C374.953 27.6348 374.888 27.7001 374.888 27.7799V36.457H374.88Z" fill="#070001"/>
<path d="M286.665 34.4984C286.81 34.5782 286.963 34.6508 287.122 34.7015L290.576 31.2481C290.525 31.0885 290.452 30.9361 290.372 30.791L286.665 34.4984Z" fill="#8D196F"/>
<path d="M290.677 31.5957L287.47 34.8025C287.673 34.8388 287.876 34.8533 288.087 34.8533L290.721 32.2196C290.721 32.0165 290.713 31.8061 290.67 31.603L290.677 31.5957Z" fill="#8D196F"/>
<path d="M290.662 32.7139L288.595 34.7816C289.088 34.6728 289.552 34.4333 289.93 34.0488C290.307 33.6643 290.554 33.2 290.662 32.7139Z" fill="#8D196F"/>
<path d="M290.206 30.5225C290.126 30.4064 290.031 30.2976 289.93 30.196C289.923 30.1888 289.908 30.1815 289.901 30.167L286.048 34.0195C286.048 34.0195 286.063 34.0412 286.077 34.0485C286.179 34.1501 286.295 34.2444 286.404 34.3242L290.213 30.5152L290.206 30.5225Z" fill="#8D196F"/>
<path d="M289.661 29.9561C288.595 29.129 287.049 29.2088 286.07 30.1882C285.091 31.1677 285.011 32.713 285.838 33.7795L289.661 29.9561Z" fill="#8D196F"/>
<path d="M289.096 28.6576C289.241 28.7374 289.393 28.8027 289.553 28.8607L293.006 25.4073C292.955 25.2477 292.883 25.0953 292.803 24.9502L289.096 28.6576Z" fill="#D0211A"/>
<path d="M292.629 24.6748C292.135 23.9928 291.33 23.543 290.416 23.543C288.907 23.543 287.688 24.7618 287.688 26.2709C287.688 27.1778 288.138 27.9831 288.82 28.4837L292.629 24.6748Z" fill="#D0211A"/>
<path d="M293.151 26.2704C293.151 26.089 293.129 25.9222 293.1 25.748L289.901 28.9476C290.068 28.9766 290.242 28.9983 290.423 28.9983C290.452 28.9983 290.489 28.9983 290.518 28.9983L293.144 26.372C293.144 26.372 293.144 26.3067 293.144 26.2777L293.151 26.2704Z" fill="#D0211A"/>
<path d="M293.079 26.873L291.018 28.9335C292.041 28.7013 292.846 27.896 293.079 26.873Z" fill="#D0211A"/>
<path d="M298.934 23.2817L295.698 26.5175C295.894 26.561 296.097 26.5828 296.3 26.5755L298.999 23.8766C298.999 23.6734 298.977 23.4776 298.941 23.2744L298.934 23.2817Z" fill="#E7961F"/>
<path d="M298.948 24.3701L296.786 26.5321C297.301 26.4306 297.795 26.1839 298.201 25.7849C298.6 25.3858 298.854 24.8925 298.948 24.3701Z" fill="#E7961F"/>
<path d="M298.839 22.9338C298.708 22.5638 298.498 22.2155 298.201 21.918C297.134 20.8515 295.407 20.8515 294.341 21.918C293.274 22.9845 293.274 24.7113 294.341 25.7778C294.638 26.0752 294.987 26.2856 295.357 26.4162L298.839 22.9338Z" fill="#E7961F"/>
<path d="M294.899 42.7473C295.045 42.8343 295.197 42.8996 295.349 42.9577L298.832 39.4752C298.774 39.3229 298.708 39.1705 298.621 39.0254L294.899 42.7473Z" fill="#248EC6"/>
<path d="M298.934 39.8159L295.698 43.0516C295.894 43.0952 296.097 43.1169 296.3 43.1097L298.999 40.4108C298.999 40.2076 298.977 40.0117 298.941 39.8086L298.934 39.8159Z" fill="#248EC6"/>
<path d="M298.455 38.757C298.375 38.6554 298.295 38.5539 298.201 38.4595C298.186 38.445 298.172 38.4305 298.157 38.416L294.305 42.2685C294.305 42.2685 294.334 42.2975 294.348 42.312C294.443 42.4063 294.544 42.4861 294.646 42.566L298.462 38.7498L298.455 38.757Z" fill="#248EC6"/>
<path d="M297.91 38.2124C296.844 37.3999 295.313 37.4797 294.334 38.4591C293.361 39.4313 293.282 40.9621 294.087 42.0359L297.903 38.2197L297.91 38.2124Z" fill="#248EC6"/>
<path d="M298.948 40.9043L296.786 43.0663C297.301 42.9648 297.795 42.7181 298.201 42.319C298.6 41.92 298.854 41.4267 298.948 40.9043Z" fill="#248EC6"/>
<path d="M304.781 26.8662L302.706 28.9412C303.736 28.7163 304.549 27.9037 304.781 26.8662Z" fill="#EAE33C"/>
<path d="M302.206 28.9984L304.839 26.3648C304.839 26.3648 304.839 26.3068 304.839 26.2777C304.839 24.7687 303.62 23.5498 302.111 23.5498C300.602 23.5498 299.383 24.7687 299.383 26.2777C299.383 27.7868 300.602 29.0057 302.111 29.0057C302.14 29.0057 302.169 29.0057 302.198 29.0057L302.206 28.9984Z" fill="#EAE33C"/>
<path d="M300.791 40.3529C300.929 40.4327 301.081 40.498 301.234 40.5488L304.694 37.0881C304.643 36.9357 304.578 36.7834 304.498 36.6455L300.791 40.3529Z" fill="#1E8A3B"/>
<path d="M304.846 37.9662C304.846 37.7848 304.825 37.6034 304.796 37.4365L301.589 40.6433C301.763 40.6796 301.937 40.6941 302.119 40.6941C302.148 40.6941 302.169 40.6941 302.198 40.6941L304.846 38.046C304.846 38.046 304.846 37.9952 304.846 37.9662Z" fill="#1E8A3B"/>
<path d="M304.781 38.5469L302.699 40.6291C303.736 40.4042 304.556 39.5844 304.781 38.5469Z" fill="#1E8A3B"/>
<path d="M304.331 36.3773C303.838 35.6881 303.033 35.2383 302.119 35.2383C300.609 35.2383 299.391 36.4571 299.391 37.9662C299.391 38.8804 299.84 39.6857 300.53 40.179L304.331 36.3773Z" fill="#1E8A3B"/>
<path d="M307.219 31.6108L304.034 34.7958C304.23 34.8321 304.433 34.8466 304.629 34.8393L307.269 32.1984C307.269 32.0025 307.269 31.7994 307.226 31.6035L307.219 31.6108Z" fill="#91B526"/>
<path d="M307.197 32.7133L305.129 34.781C305.623 34.6722 306.087 34.4328 306.472 34.0483C306.856 33.6637 307.096 33.1994 307.204 32.7061L307.197 32.7133Z" fill="#91B526"/>
<path d="M307.125 31.2623C306.994 30.8705 306.776 30.5005 306.464 30.1886C305.398 29.122 303.671 29.122 302.605 30.1886C301.538 31.2551 301.538 32.9818 302.605 34.0483C302.917 34.3603 303.287 34.5779 303.678 34.7085L307.125 31.2623Z" fill="#91B526"/>
<path d="M293.086 38.5537L291.011 40.6287C292.041 40.4038 292.854 39.5912 293.086 38.5537Z" fill="#15679F"/>
<path d="M289.088 40.346C289.233 40.4259 289.386 40.4984 289.545 40.5492L292.999 37.0957C292.948 36.9361 292.875 36.7838 292.796 36.6387L289.081 40.3533L289.088 40.346Z" fill="#15679F"/>
<path d="M293.151 37.9662C293.151 37.7848 293.129 37.6106 293.1 37.4365L289.894 40.6433C290.068 40.6796 290.242 40.6941 290.423 40.6941C290.452 40.6941 290.481 40.6941 290.51 40.6941L293.144 38.0605C293.144 38.0605 293.144 38.0024 293.144 37.9734L293.151 37.9662Z" fill="#15679F"/>
<path d="M292.629 36.3623C292.535 36.2317 292.433 36.1157 292.324 36.0068L288.472 39.8593L288.428 39.8158C288.552 39.9464 288.682 40.0625 288.827 40.1713L292.636 36.3623H292.629Z" fill="#15679F"/>
<path d="M291.395 35.4197C291.091 35.3036 290.764 35.2383 290.423 35.2383C288.914 35.2383 287.695 36.4571 287.695 37.9662C287.695 38.3072 287.761 38.6337 287.877 38.9384L291.395 35.4197Z" fill="#15679F"/>
<path d="M288.015 39.2427C288.087 39.3805 288.174 39.5111 288.269 39.6272L292.092 35.8037C291.969 35.7094 291.845 35.6224 291.708 35.5498L288.022 39.2354L288.015 39.2427Z" fill="#15679F"/>
</g>
<defs>
<clipPath id="clip0_711_838">
<rect width="380.147" height="48" fill="white"/>
</clipPath>
</defs>
</svg>
