<svg width="381" height="48" viewBox="0 0 381 48" fill="none" xmlns="http://www.w3.org/2000/svg">
<g clip-path="url(#clip0_711_703)">
<path d="M103.211 37.7847C100.556 37.5091 98.1692 37.081 96.1015 36.4208C97.4872 35.1149 98.7931 33.5695 100.056 31.5961C100.215 31.3204 100.331 31.1245 100.331 30.8851C100.331 30.6892 100.215 30.4498 99.9322 30.1741L97.6758 28.0411L94.9842 28.237H89.405C89.7242 27.7219 89.9999 27.2068 90.2321 26.6916H94.4255L100.244 26.8077L100.52 26.532L100.404 21.6638V17.7896L100.498 14.0967L100.222 13.821L94.3167 13.8065H88.2224L84.1885 13.7267C84.4642 13.3277 84.856 12.6892 85.1389 12.2974H96.7327L100.295 12.3192L100.571 12.0435L100.614 8.44497L100.338 8.16927L96.7254 8.18378H87.4678C87.7871 7.50906 88.0628 6.84158 88.2949 6.20313L88.0555 5.8839L83.7822 4.69406L83.3832 4.81014C82.4763 7.37846 80.8874 9.95404 78.8705 12.2104L77.405 10.8682L75.388 10.9843V5.28898L75.1486 4.96976H70.3602L70.0845 5.24545V10.9407L66.1305 10.8609L65.8911 11.1003V15.4897L66.1305 15.8089L70.9552 15.7291H73.2913C71.5646 19.8355 69.0906 23.347 65.3687 26.5175C65.1728 26.6844 65.1293 26.9673 65.2744 27.1777L67.5597 30.5659C67.7194 30.8053 67.9152 30.9214 68.1111 30.9214C68.307 30.9214 68.5029 30.8053 68.7859 30.6022C69.2212 30.2467 69.6565 29.8476 70.0918 29.4123V33.2068L69.9032 42.4353C69.9032 42.711 70.1208 42.9359 70.3965 42.9359H75.0906C75.3663 42.9359 75.5839 42.711 75.5839 42.4353L75.3953 33.2068V29.9637C76.07 30.5586 76.781 31.1898 77.5718 31.9806H78.0071L80.8584 28.6578L80.8221 28.3023C80.1184 27.7654 79.4364 27.2793 78.7617 26.815C78.798 26.7787 78.8197 26.7642 78.8632 26.7207C79.8137 25.6904 80.6408 24.5877 81.7145 22.8464L81.6782 22.4909L78.3554 20.5901L77.9999 20.6699C77.2236 22.2588 76.5924 23.318 75.5259 24.74C75.4824 24.7182 75.4461 24.6892 75.4098 24.6675V22.9262C76.9116 20.5901 78.1813 18.1016 79.284 15.526L80.6262 16.9915C80.8221 17.1874 80.9818 17.2672 81.0978 17.2672C81.2574 17.2672 81.4171 17.1874 81.6492 16.948C81.8886 16.7086 82.0845 16.4764 82.324 16.237L82.3602 17.7823V21.6566L82.2441 26.5248L82.5198 26.8005L84.9358 26.7642C83.1801 29.5502 80.8076 31.7412 77.5211 33.8089C77.3324 33.925 77.2961 34.1935 77.4558 34.3458L80.1111 36.9649C80.307 37.1608 80.4666 37.2406 80.6625 37.2406C80.7786 37.2406 80.9019 37.2043 81.0543 37.081C82.3167 36.2104 83.5065 35.26 84.6166 34.2297C85.2913 35.1003 86.0821 35.9274 86.9092 36.6457C84.3917 37.5598 81.33 38.0677 77.3614 38.4232C77.151 38.445 77.0204 38.6771 77.1293 38.8585L79.197 42.4571C79.4364 42.8924 79.6323 42.8561 80.1039 42.8126C84.7327 42.2612 88.3747 41.347 91.4146 39.7291C94.1063 41.0713 97.1099 42.0653 100.273 42.6529C100.868 42.7328 100.948 42.6892 101.18 42.2974L103.473 38.3144C103.603 38.0822 103.451 37.7993 103.19 37.7702L103.211 37.7847ZM87.7508 17.4704C87.7508 17.3833 87.8233 17.3107 87.9104 17.3107H95.0277C95.1148 17.3107 95.1873 17.3833 95.1873 17.4704V18.5369C95.1873 18.6239 95.1148 18.6965 95.0277 18.6965H87.9104C87.8233 18.6965 87.7508 18.6239 87.7508 18.5369V17.4704ZM87.7508 22.9698V21.8597C87.7508 21.7727 87.8233 21.7001 87.9104 21.7001H95.0277C95.1148 21.7001 95.1873 21.7727 95.1873 21.8597V22.9698C95.1873 23.0568 95.1148 23.1294 95.0277 23.1294H87.9104C87.8233 23.1294 87.7508 23.0568 87.7508 22.9698ZM91.3566 34.324C90.2901 33.6493 89.3397 32.8585 88.4255 31.9879H93.7653C93.0543 32.8585 92.2635 33.6493 91.3493 34.324H91.3566Z" fill="#212C30"/>
<path d="M139.4 23.6155H143.398L149.964 23.5937L150.24 23.8694V27.3011L149.964 27.5768L143.398 27.6131H139.4V29.1947H148.107L154.672 29.2309L154.948 29.5066V33.1487L154.672 33.4244L148.107 33.3083H142.215C146.003 35.1439 149.434 36.5586 154.585 37.6106C154.839 37.6614 154.963 37.9516 154.81 38.162L152.119 41.9492C152.003 42.1451 151.879 42.2249 151.647 42.2249C151.531 42.2249 151.328 42.2249 151.132 42.1451C145.828 40.6433 142.81 38.8005 139.328 36.3845L139.371 42.4571C139.371 42.682 139.19 42.8706 138.965 42.8706H134.496C134.271 42.8706 134.09 42.6892 134.09 42.4716L133.995 36.6239C130.513 38.9166 127.72 40.5127 122.931 42.0508C122.692 42.1306 122.532 42.1669 122.416 42.1669C122.097 42.1669 121.981 42.0072 121.821 41.8114L119.122 38.3289C118.977 38.1403 119.079 37.8718 119.304 37.8138C124.498 36.4788 127.538 35.2164 131.028 33.3011H125.333L118.963 33.3519L118.687 33.0762V29.4994L118.963 29.2237L125.333 29.1874H133.915V27.6058H130.194L123.628 27.5623L123.352 27.2866V23.8839L123.628 23.6082H130.194H133.915V22.0629H121.379L121.103 21.7799V18.2249L121.379 17.9492H128.895C128.699 17.0423 128.423 16.1717 128.14 15.3011H125.093L118.723 15.4172L118.448 15.1415V11.3688L118.723 11.0931L123.671 11.0713C123.2 9.8815 122.641 8.69891 122.169 7.86457L122.365 7.54534L126.522 6.15961L126.842 6.27569C127.596 7.58162 128.503 9.43893 129.178 11.1004H130.44V5.32527L130.716 5.00604H135.345L135.664 5.28174V11.1004H137.601V5.32527L137.877 5.00604H142.665L142.984 5.28174V11.1004H144.174C145.045 9.40266 145.756 7.58162 146.155 6.11608L146.554 5.95647L151.422 7.53809L151.538 7.93712C151.103 8.80773 150.472 9.95405 149.797 11.0641L154.701 11.0858L154.977 11.3615V15.1342L154.701 15.4099L148.331 15.2938H146.039C145.763 16.2007 145.364 17.0713 145.009 17.942H152.206L152.481 18.2177V21.7872L152.206 22.0629H145.64H139.429V23.6082L139.4 23.6155ZM133.509 15.3083C133.865 16.179 134.14 17.0496 134.416 17.9565H139.48C139.72 17.0858 139.915 16.2152 140.111 15.3083H133.502H133.509Z" fill="#212C30"/>
<path d="M203.202 23.3398C203.282 25.0012 203.318 26.6264 203.478 28.2878C204.073 26.9021 204.508 25.48 204.863 24.1306L205.183 23.971L208.389 26.1475L208.549 26.5466C207.519 29.5139 206.133 32.2854 204.472 34.8174C204.747 35.8041 205.045 36.5949 205.241 36.5949C205.574 36.5949 206.307 35.9492 206.67 33.2213C206.706 32.9601 207.018 32.8368 207.221 33.0036L209.354 34.6868C209.79 35.0423 209.949 35.2382 209.869 35.717C209.238 40.7449 207.359 42.4571 205.103 42.4571C203.681 42.4571 202.172 41.7461 200.989 39.214C199.879 40.3603 198.653 41.3906 197.391 42.341C197.151 42.5369 196.919 42.6167 196.716 42.6167C196.513 42.6167 196.324 42.5369 196.085 42.341L193.524 40.2588C193.32 40.0919 193.335 39.7872 193.553 39.6421C194.119 39.2503 194.684 38.8295 195.221 38.3869L192.965 38.3071H185.804C185.586 38.3071 185.412 38.1258 185.42 37.9081L185.601 33.0036V29.0496L185.485 24.9722L185.761 24.6965L189.519 24.8126H193.241L196.999 24.6965L197.238 24.9722L197.122 28.8464V33.8742L197.202 36.6022C197.993 35.8114 198.784 34.977 199.458 34.1064C198.784 30.5441 198.588 26.9456 198.428 23.347H190.121L184.701 23.4631L184.426 23.2237V19.4293L184.665 19.1536L187.154 19.1898C186.798 17.8839 186.399 16.4982 185.848 15.156L185.964 14.8368L189.171 13.6469L189.49 13.8863C190.085 15.1125 190.556 16.3023 191.071 18L190.912 18.3555L188.46 19.2261L190.121 19.2624H191.586C192.102 17.4051 192.493 15.5405 192.776 13.6469L192.856 13.5671H189.214L185.296 13.6832L185.021 13.4438V10.5925H183.794V28.9915L183.983 42.5369C183.983 42.7473 183.816 42.9214 183.606 42.9214H179.427C179.216 42.9214 179.05 42.7473 179.05 42.5369L179.166 34.8102C177.308 35.4849 175.052 36.1161 172.52 36.8271L172.164 36.6312L170.822 32.162L171.018 31.8065C171.693 31.6904 172.281 31.6106 172.875 31.4873V10.5998H171.453L171.178 10.3241V6.2104L171.533 6.01451H185.1L185.376 6.29021V9.37364L189.018 9.35913V6.36276L189.258 6.08707H193.611L193.886 6.36276V9.35913L197.289 9.37364L197.528 9.56953V13.4873L197.289 13.6832L193.451 13.5671L196.694 14.7932L196.854 15.1487C196.375 16.6941 195.983 18.0363 195.548 19.2624H198.319C198.239 15.7437 198.203 11.3906 198.203 5.8549L198.443 5.53568H202.796L203.071 5.81137V10.8755L206.075 9.09795L206.351 9.21403C207.657 11.3906 208.172 12.6167 208.767 14.5973L208.651 14.9528L205.052 17.1294L204.776 16.9698C204.305 15.1923 203.826 13.6106 203.079 11.9492C203.115 14.4015 203.115 16.8174 203.158 19.2697L208.817 19.1536L209.093 19.393V23.231L208.817 23.4704L203.238 23.3543L203.202 23.3398ZM179.231 13.9371V10.7521C179.231 10.6288 179.129 10.5272 179.006 10.5272H177.482C177.359 10.5272 177.258 10.6288 177.258 10.7521V13.9371C177.258 14.0605 177.359 14.162 177.482 14.162H179.006C179.129 14.162 179.231 14.0605 179.231 13.9371ZM177.25 18.6239V21.9686C177.25 22.0919 177.352 22.1935 177.475 22.1935H178.999C179.122 22.1935 179.224 22.0919 179.224 21.9686V18.6239C179.224 18.5006 179.122 18.399 178.999 18.399H177.475C177.352 18.399 177.25 18.5006 177.25 18.6239ZM177.25 26.6554V30.3337C177.25 30.4788 177.388 30.5877 177.533 30.5586C178.041 30.4353 178.534 30.312 179.05 30.1959C179.151 30.1741 179.224 30.0798 179.224 29.971V26.6626C179.224 26.5393 179.122 26.4377 178.999 26.4377H177.475C177.352 26.4377 177.25 26.5393 177.25 26.6626V26.6554ZM192.682 28.2878H190.063C189.932 28.2878 189.831 28.3894 189.831 28.52V29.6372C189.831 29.7678 189.932 29.8694 190.063 29.8694H192.682C192.813 29.8694 192.914 29.7678 192.914 29.6372V28.52C192.914 28.3894 192.813 28.2878 192.682 28.2878ZM189.831 33.4244V34.5852C189.831 34.7158 189.932 34.8174 190.063 34.8174H192.682C192.813 34.8174 192.914 34.7158 192.914 34.5852V33.4244C192.914 33.2938 192.813 33.1923 192.682 33.1923H190.063C189.932 33.1923 189.831 33.2938 189.831 33.4244Z" fill="#212C30"/>
<path d="M246.232 7.04473C246.196 11.318 246.072 14.7569 245.717 17.9637C248.8 27.7364 254.343 32.8367 262.687 37.1898L258.929 42.0943C258.813 42.2539 258.653 42.3337 258.493 42.3337C258.334 42.3337 258.138 42.2539 257.898 42.1378C251.332 38.6989 246.305 33.2358 243.577 26.9093C241.161 33.5913 235.901 39.0544 229.016 42.4135C228.82 42.4933 228.66 42.5731 228.501 42.5731C228.384 42.5731 228.261 42.4933 228.101 42.3773L224.147 37.9444C231.628 34.4619 236.684 29.6372 238.505 22.5925C239.412 19.0738 239.971 14.2056 239.811 6.84885L240.087 6.57315L245.942 6.76904L246.218 7.04473H246.232Z" fill="#212C30"/>
<path d="M32.4015 4.79564L43.0231 0.0870557C43.7051 -0.21766 44.3363 0.282944 44.1911 1.01571L42.0001 12.428C41.8768 13.0665 41.1367 13.4438 40.6942 13.0955L32.046 6.21765C31.6035 5.8694 31.8066 5.06408 32.4015 4.79564Z" fill="#258FC7"/>
<path d="M18.37 11.3906L27.5986 7.3567C28.4837 6.97217 29.2818 7.61788 29.0931 8.5683L26.9964 19.1608C26.7933 20.1765 25.6179 20.7714 24.9214 20.2055L17.6155 14.3071C16.7086 13.5743 17.1367 11.9202 18.3628 11.3833L18.37 11.3906Z" fill="#BDCF24"/>
<path d="M1.34957 19.3712L11.4415 14.9601C12.4064 14.5393 13.2843 15.2431 13.0811 16.2805L10.7885 27.867C10.5709 28.977 9.2867 29.63 8.51765 29.0133L0.529743 22.5707C-0.456956 21.7727 0.000117827 19.9589 1.34957 19.3712Z" fill="#EDD723"/>
<path d="M13.4074 28.5417L23.4993 24.1306C24.4643 23.7098 25.3421 24.4135 25.139 25.451L22.8464 37.0375C22.6287 38.1475 21.3446 38.8005 20.5755 38.1838L12.5876 31.734C11.6009 30.9359 12.058 29.1221 13.4074 28.5345V28.5417Z" fill="#E8971F"/>
<path d="M24.9213 38.1185L35.0132 33.7074C35.9782 33.2866 36.8561 33.9903 36.6529 35.0278L34.3603 46.6143C34.1426 47.7243 32.8585 48.3773 32.0894 47.7606L24.1015 41.3107C23.1148 40.5127 23.5719 38.6989 24.9213 38.1112V38.1185Z" fill="#DD5519"/>
<path d="M30.1161 20.7279L39.3447 16.6941C40.2298 16.3095 41.0279 16.9553 40.8392 17.9057L38.7425 28.4982C38.5393 29.5139 37.364 30.1088 36.6675 29.5429L29.3616 23.6445C28.4547 22.9117 28.8828 21.2576 30.1089 20.7207L30.1161 20.7279Z" fill="#4B9E36"/>
<path d="M286.244 7.66142H287.891V7.98065H287.913C288.276 7.71221 288.769 7.53809 289.306 7.53809C290.691 7.53809 291.874 8.64812 291.874 10.3313C291.874 12.0145 290.612 13.2769 289.008 13.2769C288.587 13.2769 288.232 13.1898 287.942 13.052L287.92 13.0665V15.5913H286.237V7.66142H286.244ZM288.791 11.9057C289.698 11.9057 290.184 11.2527 290.184 10.4329C290.184 9.61306 289.698 8.96009 288.856 8.96009C288.479 8.96009 288.145 9.1052 287.927 9.27932V11.6808C288.152 11.8041 288.471 11.9057 288.791 11.9057Z" fill="#212C30"/>
<path d="M292.941 7.66144H294.588V8.3942L294.61 8.40871C294.987 7.87909 295.517 7.60339 296.191 7.60339C296.3 7.60339 296.423 7.61065 296.547 7.64692V9.22855C296.416 9.19227 296.249 9.1705 296.097 9.1705C295.509 9.1705 295.023 9.34463 294.624 9.81621V13.1608H292.941V7.66869V7.66144Z" fill="#212C30"/>
<path d="M297.04 10.4111C297.04 8.79322 298.339 7.53809 300.073 7.53809C301.807 7.53809 303.105 8.79322 303.105 10.4111C303.105 12.029 301.807 13.2769 300.073 13.2769C298.339 13.2769 297.04 12.0218 297.04 10.4111ZM301.429 10.4111C301.429 9.62757 300.842 8.99637 300.08 8.99637C299.318 8.99637 298.73 9.62757 298.73 10.4111C298.73 11.1947 299.318 11.8259 300.08 11.8259C300.842 11.8259 301.429 11.1947 301.429 10.4111Z" fill="#212C30"/>
<path d="M307.836 12.8343L307.814 12.8198C307.451 13.11 306.951 13.2769 306.406 13.2769C305.057 13.2769 303.867 12.2104 303.867 10.5054C303.867 8.80047 305.101 7.53808 306.711 7.53808C307.132 7.53808 307.473 7.63965 307.778 7.76298L307.799 7.74847V4.69406H309.483V13.1608H307.836V12.8416V12.8343ZM307.799 11.5792V9.17774C307.553 9.04714 307.27 8.95283 306.936 8.95283C306.029 8.95283 305.565 9.64207 305.565 10.4474C305.565 11.2527 306.029 11.8984 306.871 11.8984C307.248 11.8984 307.56 11.7533 307.799 11.5792Z" fill="#212C30"/>
<path d="M314.496 12.7328H314.474C314.046 13.0665 313.48 13.2769 312.849 13.2769C312.218 13.2769 311.732 13.0883 311.376 12.6892C311.021 12.2902 310.89 11.8331 310.89 11.0713V7.66143H312.573V10.7956C312.573 11.1947 312.631 11.4414 312.784 11.601C312.936 11.7678 313.205 11.8331 313.458 11.8331C313.836 11.8331 314.191 11.6663 314.474 11.4559V7.65417H316.157V13.1463H314.496V12.7255V12.7328Z" fill="#212C30"/>
<path d="M320.314 13.2769C318.479 13.2769 317.224 12.0798 317.224 10.4184C317.224 8.75695 318.588 7.53809 320.358 7.53809C320.953 7.53809 321.555 7.68319 321.976 7.95163V9.44619C321.54 9.15598 321.033 8.96735 320.488 8.96735C319.538 8.96735 318.907 9.57678 318.907 10.4111C318.907 11.2455 319.553 11.8549 320.51 11.8549C321.062 11.8549 321.664 11.6445 322.019 11.3688V12.8634C321.577 13.1536 320.924 13.2842 320.314 13.2842V13.2769Z" fill="#212C30"/>
<path d="M325.988 13.2769C324.16 13.2769 322.883 12.1669 322.883 10.4184C322.883 8.66989 324.189 7.53809 325.727 7.53809C327.098 7.53809 328.339 8.40145 328.339 10.2733C328.339 10.4619 328.331 10.7086 328.302 10.8464H324.595C324.762 11.601 325.379 11.942 326.191 11.942C326.808 11.942 327.468 11.717 328.041 11.3688V12.7836C327.519 13.0955 326.714 13.2696 325.981 13.2696L325.988 13.2769ZM326.793 9.80894C326.706 9.13422 326.249 8.82225 325.705 8.82225C325.161 8.82225 324.711 9.15598 324.588 9.80894H326.793Z" fill="#212C30"/>
<path d="M333.113 12.8343L333.091 12.8198C332.728 13.11 332.227 13.2769 331.683 13.2769C330.334 13.2769 329.144 12.2104 329.144 10.5054C329.144 8.80047 330.377 7.53808 331.988 7.53808C332.409 7.53808 332.75 7.63965 333.055 7.76298L333.076 7.74847V4.69406H334.76V13.1608H333.113V12.8416V12.8343ZM333.076 11.5792V9.17774C332.83 9.04714 332.547 8.95283 332.213 8.95283C331.306 8.95283 330.842 9.64207 330.842 10.4474C330.842 11.2527 331.306 11.8984 332.148 11.8984C332.525 11.8984 332.837 11.7533 333.076 11.5792Z" fill="#212C30"/>
<path d="M338.786 4.69406H340.469V7.95162L340.491 7.96613C340.876 7.67592 341.354 7.54533 341.877 7.54533C343.248 7.54533 344.438 8.57556 344.438 10.3023C344.438 12.029 343.197 13.2841 341.478 13.2841C340.883 13.2841 340.368 13.139 339.925 12.9286L338.786 13.2043V4.69406ZM341.347 11.9057C342.211 11.9057 342.74 11.2745 342.74 10.3893C342.74 9.555 342.261 8.96008 341.42 8.96008C341.035 8.96008 340.701 9.09068 340.469 9.25754V11.6953C340.694 11.8186 341.013 11.9057 341.347 11.9057Z" fill="#212C30"/>
<path d="M345.642 15.5913L347.071 12.5369L344.858 7.66144H346.629L347.195 9.0254C347.441 9.61307 347.673 10.1862 347.891 10.7666H347.913C348.16 10.1572 348.399 9.58405 348.653 8.99638L349.226 7.66869H350.902L347.354 15.5986H345.635L345.642 15.5913Z" fill="#212C30"/>
<path d="M319.959 34.7376C319.959 34.6215 319.821 34.549 319.719 34.6143C319.095 35.0206 318.363 35.2527 317.579 35.2527C315.722 35.2527 314.503 33.954 314.503 32.2781C314.503 30.6022 315.729 29.2962 317.492 29.2962C318.254 29.2962 319.001 29.5357 319.589 29.8912C319.69 29.9492 319.821 29.8839 319.821 29.7678V28.607C319.821 28.5562 319.792 28.5054 319.741 28.4764C319.095 28.1499 318.305 27.9613 317.485 27.9613C314.829 27.9613 313.023 29.8912 313.023 32.2999C313.023 34.7086 314.873 36.5949 317.492 36.5949C318.319 36.5949 319.19 36.4135 319.872 36.0363C319.915 36.0145 319.944 35.9637 319.944 35.9129V34.7376H319.959Z" fill="#070001"/>
<path d="M321.381 33.6276C321.381 35.3035 322.701 36.6022 324.464 36.6022C326.227 36.6022 327.548 35.3035 327.548 33.6276C327.548 31.9516 326.227 30.653 324.464 30.653C322.701 30.653 321.381 31.9516 321.381 33.6276ZM322.781 33.6276C322.781 32.6409 323.499 31.8791 324.464 31.8791C325.429 31.8791 326.147 32.6409 326.147 33.6276C326.147 34.6143 325.429 35.376 324.464 35.376C323.499 35.376 322.781 34.6143 322.781 33.6276Z" fill="#070001"/>
<path d="M330.537 27.6348H329.427C329.347 27.6348 329.282 27.6998 329.282 27.7799V36.3265C329.282 36.4066 329.347 36.4716 329.427 36.4716H330.537C330.617 36.4716 330.682 36.4066 330.682 36.3265V27.7799C330.682 27.6998 330.617 27.6348 330.537 27.6348Z" fill="#070001"/>
<path d="M332.409 33.6276C332.409 35.3035 333.729 36.6022 335.492 36.6022C337.255 36.6022 338.576 35.3035 338.576 33.6276C338.576 31.9516 337.255 30.653 335.492 30.653C333.729 30.653 332.409 31.9516 332.409 33.6276ZM333.809 33.6276C333.809 32.6409 334.527 31.8791 335.492 31.8791C336.457 31.8791 337.175 32.6409 337.175 33.6276C337.175 34.6143 336.457 35.376 335.492 35.376C334.527 35.376 333.809 34.6143 333.809 33.6276Z" fill="#070001"/>
<path d="M340.317 36.3265C340.317 36.4063 340.382 36.4716 340.462 36.4716H341.572C341.652 36.4716 341.717 36.4063 341.717 36.3265V32.9383C341.717 32.9383 341.724 32.8803 341.746 32.8585C342.138 32.3289 342.66 32.0532 343.299 32.0532C343.408 32.0532 343.495 32.0605 343.582 32.075C343.676 32.0895 343.763 32.0242 343.763 31.9299V30.8851C343.763 30.8198 343.72 30.7618 343.654 30.7473C343.56 30.7328 343.473 30.7255 343.379 30.7255C342.711 30.7255 342.131 31.0302 341.739 31.5816C341.739 31.5816 341.724 31.5889 341.717 31.5816C341.717 31.5816 341.71 31.5744 341.71 31.5671V30.9214C341.71 30.8416 341.645 30.7763 341.565 30.7763H340.469C340.389 30.7763 340.324 30.8416 340.324 30.9214V36.3265H340.317Z" fill="#070001"/>
<path d="M350.909 36.4933C350.931 36.5514 350.982 36.5949 351.047 36.5949H352.389C352.454 36.5949 352.505 36.5514 352.527 36.4933L353.615 32.9311C353.818 32.2418 354.014 31.5744 354.203 30.9214C354.203 30.9214 354.21 30.9069 354.217 30.9069C354.225 30.9069 354.232 30.9069 354.232 30.9214C354.413 31.5744 354.624 32.2636 354.827 32.9528L355.908 36.4861C355.93 36.5441 355.98 36.5877 356.046 36.5877H357.388C357.453 36.5877 357.511 36.5441 357.526 36.4861L360.029 28.2805C360.058 28.1862 359.985 28.0919 359.891 28.0919H358.701C358.636 28.0919 358.578 28.1354 358.563 28.1935L357.366 32.2128C357.148 32.9383 356.931 33.7291 356.735 34.4546C356.735 34.4546 356.728 34.4692 356.72 34.4692C356.713 34.4692 356.706 34.4692 356.706 34.4546C356.496 33.7074 356.307 33.0544 356.053 32.2273L354.827 28.2007C354.805 28.1427 354.754 28.0991 354.689 28.0991H353.826C353.76 28.0991 353.702 28.1427 353.688 28.2007L352.462 32.2201C352.244 32.9456 352.005 33.7509 351.809 34.4619C351.809 34.4619 351.801 34.4764 351.794 34.4764C351.787 34.4764 351.78 34.4764 351.78 34.4619C351.584 33.7364 351.366 32.9673 351.148 32.2346L349.951 28.208C349.93 28.1499 349.879 28.1064 349.814 28.1064H348.558C348.464 28.1064 348.392 28.2007 348.421 28.295L350.909 36.5006V36.4933Z" fill="#070001"/>
<path d="M361.988 28.9117C361.988 29.3906 362.38 29.7896 362.851 29.7896C363.323 29.7896 363.729 29.3906 363.729 28.9117C363.729 28.4329 363.337 28.0338 362.866 28.0338C362.394 28.0338 361.988 28.4329 361.988 28.9117ZM362.162 36.4571C362.162 36.5369 362.227 36.6022 362.307 36.6022H363.417C363.497 36.6022 363.562 36.5369 363.562 36.4571V30.9722C363.562 30.8924 363.497 30.8271 363.417 30.8271H362.307C362.227 30.8271 362.162 30.8924 362.162 30.9722V36.4571Z" fill="#070001"/>
<path d="M368.474 36.4571C368.474 36.5369 368.539 36.6022 368.619 36.6022H369.794C369.874 36.6022 369.94 36.5369 369.94 36.4571V29.5719C369.94 29.4921 370.005 29.4268 370.085 29.4268H372.559C372.638 29.4268 372.704 29.3615 372.704 29.2817V28.2443C372.704 28.1644 372.638 28.0992 372.559 28.0992H365.884C365.804 28.0992 365.739 28.1644 365.739 28.2443V29.2817C365.739 29.3615 365.804 29.4268 365.884 29.4268H368.336C368.416 29.4268 368.481 29.4921 368.481 29.5719V36.4571H368.474Z" fill="#070001"/>
<path d="M374.88 36.4571C374.88 36.5369 374.946 36.6022 375.025 36.6022H376.135C376.215 36.6022 376.281 36.5369 376.281 36.4571V32.7352C376.281 32.6989 376.295 32.6626 376.317 32.6409C376.687 32.2636 377.231 31.9516 377.782 31.9516C378.08 31.9516 378.334 32.046 378.522 32.2709C378.682 32.4595 378.755 32.7134 378.755 33.2576V36.4571C378.755 36.5369 378.82 36.6022 378.9 36.6022H380.01C380.09 36.6022 380.155 36.5369 380.155 36.4571V33.0109C380.155 32.1548 380.002 31.6759 379.669 31.3059C379.313 30.9069 378.776 30.6965 378.167 30.6965C377.42 30.6965 376.781 31.023 376.317 31.451C376.317 31.451 376.302 31.451 376.295 31.451C376.295 31.451 376.288 31.4438 376.288 31.4365V27.7799C376.288 27.7001 376.223 27.6348 376.143 27.6348H375.033C374.953 27.6348 374.888 27.7001 374.888 27.7799V36.4571H374.88Z" fill="#070001"/>
<path d="M286.665 34.4982C286.81 34.578 286.963 34.6505 287.122 34.7013L290.576 31.2479C290.525 31.0883 290.452 30.9359 290.372 30.7908L286.665 34.4982Z" fill="#8D196F"/>
<path d="M290.677 31.5961L287.47 34.8029C287.673 34.8392 287.876 34.8537 288.087 34.8537L290.721 32.2201C290.721 32.0169 290.713 31.8065 290.67 31.6034L290.677 31.5961Z" fill="#8D196F"/>
<path d="M290.662 32.7134L288.595 34.7811C289.088 34.6723 289.552 34.4329 289.93 34.0484C290.307 33.6638 290.554 33.1995 290.662 32.7134Z" fill="#8D196F"/>
<path d="M290.206 30.5224C290.126 30.4063 290.031 30.2975 289.93 30.1959C289.923 30.1886 289.908 30.1814 289.901 30.1669L286.048 34.0193C286.048 34.0193 286.063 34.0411 286.077 34.0484C286.179 34.1499 286.295 34.2443 286.404 34.3241L290.213 30.5151L290.206 30.5224Z" fill="#8D196F"/>
<path d="M289.661 29.9565C288.595 29.1294 287.049 29.2092 286.07 30.1886C285.091 31.1681 285.011 32.7134 285.838 33.7799L289.661 29.9565Z" fill="#8D196F"/>
<path d="M289.096 28.6578C289.241 28.7376 289.393 28.8029 289.553 28.8609L293.006 25.4075C292.955 25.2479 292.883 25.0955 292.803 24.9504L289.096 28.6578Z" fill="#D0211A"/>
<path d="M292.629 24.6747C292.135 23.9928 291.33 23.5429 290.416 23.5429C288.907 23.5429 287.688 24.7618 287.688 26.2709C287.688 27.1778 288.138 27.9831 288.82 28.4837L292.629 24.6747Z" fill="#D0211A"/>
<path d="M293.151 26.2708C293.151 26.0895 293.129 25.9226 293.1 25.7485L289.901 28.948C290.068 28.977 290.242 28.9988 290.423 28.9988C290.452 28.9988 290.489 28.9988 290.518 28.9988L293.144 26.3724C293.144 26.3724 293.144 26.3071 293.144 26.2781L293.151 26.2708Z" fill="#D0211A"/>
<path d="M293.079 26.873L291.018 28.9335C292.041 28.7013 292.846 27.896 293.079 26.873Z" fill="#D0211A"/>
<path d="M298.934 23.2817L295.698 26.5175C295.894 26.5611 296.097 26.5828 296.3 26.5756L298.999 23.8767C298.999 23.6735 298.977 23.4776 298.941 23.2745L298.934 23.2817Z" fill="#E7961F"/>
<path d="M298.948 24.37L296.786 26.532C297.301 26.4305 297.795 26.1838 298.201 25.7847C298.6 25.3857 298.854 24.8924 298.948 24.37Z" fill="#E7961F"/>
<path d="M298.839 22.9335C298.708 22.5635 298.498 22.2152 298.201 21.9178C297.134 20.8513 295.407 20.8513 294.341 21.9178C293.274 22.9843 293.274 24.711 294.341 25.7775C294.638 26.075 294.987 26.2854 295.357 26.416L298.839 22.9335Z" fill="#E7961F"/>
<path d="M294.899 42.7473C295.045 42.8343 295.197 42.8996 295.349 42.9577L298.832 39.4752C298.774 39.3229 298.708 39.1705 298.621 39.0254L294.899 42.7473Z" fill="#248EC6"/>
<path d="M298.934 39.8162L295.698 43.052C295.894 43.0955 296.097 43.1173 296.3 43.11L298.999 40.4111C298.999 40.208 298.977 40.0121 298.941 39.809L298.934 39.8162Z" fill="#248EC6"/>
<path d="M298.455 38.7569C298.375 38.6554 298.295 38.5538 298.201 38.4595C298.186 38.445 298.172 38.4305 298.157 38.416L294.305 42.2684C294.305 42.2684 294.334 42.2975 294.348 42.312C294.443 42.4063 294.544 42.4861 294.646 42.5659L298.462 38.7497L298.455 38.7569Z" fill="#248EC6"/>
<path d="M297.91 38.2128C296.844 37.4002 295.313 37.48 294.334 38.4595C293.361 39.4317 293.282 40.9625 294.087 42.0363L297.903 38.2201L297.91 38.2128Z" fill="#248EC6"/>
<path d="M298.948 40.9045L296.786 43.0665C297.301 42.9649 297.795 42.7183 298.201 42.3192C298.6 41.9202 298.854 41.4269 298.948 40.9045Z" fill="#248EC6"/>
<path d="M304.781 26.8658L302.706 28.9408C303.736 28.7158 304.549 27.9033 304.781 26.8658Z" fill="#EAE33C"/>
<path d="M302.206 28.9988L304.839 26.3652C304.839 26.3652 304.839 26.3071 304.839 26.2781C304.839 24.769 303.62 23.5502 302.111 23.5502C300.602 23.5502 299.383 24.769 299.383 26.2781C299.383 27.7872 300.602 29.006 302.111 29.006C302.14 29.006 302.169 29.006 302.198 29.006L302.206 28.9988Z" fill="#EAE33C"/>
<path d="M300.791 40.3531C300.929 40.4329 301.081 40.4982 301.234 40.549L304.694 37.0883C304.643 36.9359 304.578 36.7835 304.498 36.6457L300.791 40.3531Z" fill="#1E8A3B"/>
<path d="M304.846 37.9662C304.846 37.7848 304.825 37.6034 304.796 37.4365L301.589 40.6433C301.763 40.6796 301.937 40.6941 302.119 40.6941C302.148 40.6941 302.169 40.6941 302.198 40.6941L304.846 38.046C304.846 38.046 304.846 37.9952 304.846 37.9662Z" fill="#1E8A3B"/>
<path d="M304.781 38.5465L302.699 40.6288C303.736 40.4039 304.556 39.584 304.781 38.5465Z" fill="#1E8A3B"/>
<path d="M304.331 36.3773C303.838 35.688 303.033 35.2382 302.119 35.2382C300.609 35.2382 299.391 36.4571 299.391 37.9662C299.391 38.8803 299.84 39.6856 300.53 40.179L304.331 36.3773Z" fill="#1E8A3B"/>
<path d="M307.219 31.6106L304.034 34.7957C304.23 34.8319 304.433 34.8464 304.629 34.8392L307.269 32.1983C307.269 32.0024 307.269 31.7993 307.226 31.6034L307.219 31.6106Z" fill="#91B526"/>
<path d="M307.197 32.7134L305.129 34.7811C305.623 34.6723 306.087 34.4329 306.472 34.0484C306.856 33.6639 307.096 33.1995 307.204 32.7062L307.197 32.7134Z" fill="#91B526"/>
<path d="M307.125 31.2624C306.994 30.8706 306.776 30.5006 306.464 30.1886C305.398 29.1221 303.671 29.1221 302.605 30.1886C301.538 31.2551 301.538 32.9819 302.605 34.0484C302.917 34.3603 303.287 34.578 303.678 34.7086L307.125 31.2624Z" fill="#91B526"/>
<path d="M293.086 38.5538L291.011 40.6288C292.041 40.4039 292.854 39.5913 293.086 38.5538Z" fill="#15679F"/>
<path d="M289.088 40.3458C289.233 40.4256 289.386 40.4982 289.545 40.549L292.999 37.0955C292.948 36.9359 292.875 36.7836 292.796 36.6385L289.081 40.3531L289.088 40.3458Z" fill="#15679F"/>
<path d="M293.151 37.9662C293.151 37.7848 293.129 37.6106 293.1 37.4365L289.894 40.6433C290.068 40.6796 290.242 40.6941 290.423 40.6941C290.452 40.6941 290.481 40.6941 290.51 40.6941L293.144 38.0605C293.144 38.0605 293.144 38.0024 293.144 37.9734L293.151 37.9662Z" fill="#15679F"/>
<path d="M292.629 36.3628C292.535 36.2322 292.433 36.1161 292.324 36.0073L288.472 39.8597L288.428 39.8162C288.552 39.9468 288.682 40.0629 288.827 40.1717L292.636 36.3628H292.629Z" fill="#15679F"/>
<path d="M291.395 35.4196C291.091 35.3035 290.764 35.2382 290.423 35.2382C288.914 35.2382 287.695 36.4571 287.695 37.9662C287.695 38.3071 287.761 38.6336 287.877 38.9383L291.395 35.4196Z" fill="#15679F"/>
<path d="M288.015 39.243C288.087 39.3809 288.174 39.5115 288.269 39.6276L292.092 35.8041C291.969 35.7098 291.845 35.6227 291.708 35.5502L288.022 39.2358L288.015 39.243Z" fill="#15679F"/>
</g>
<defs>
<clipPath id="clip0_711_703">
<rect width="380.147" height="48" fill="white"/>
</clipPath>
</defs>
</svg>
