<svg width="381" height="48" fill="none" xmlns="http://www.w3.org/2000/svg"><g clip-path="url(#clip0_711_838)"><path d="M103.211 37.785c-2.655-.276-5.042-.704-7.11-1.364 1.386-1.306 2.692-2.851 3.955-4.825.159-.275.275-.471.275-.71 0-.197-.116-.436-.399-.712l-2.256-2.133-2.692.196h-5.579c.32-.515.595-1.03.827-1.545h4.194l5.818.116.276-.276-.116-4.868V17.79l.094-3.693-.276-.276-5.905-.014h-6.095l-4.033-.08c.275-.399.667-1.037.95-1.43h11.594l3.562.022.276-.275.043-3.599-.276-.275-3.613.014h-9.257c.32-.675.595-1.342.827-1.98l-.24-.32-4.273-1.19-.399.116c-.907 2.569-2.496 5.144-4.512 7.4l-1.466-1.342-2.017.117V5.289l-.24-.319H70.36l-.275.276v5.695l-3.954-.08-.24.24v4.389l.24.32 4.824-.08h2.336c-1.726 4.106-4.2 7.617-7.922 10.788a.496.496 0 00-.095.66l2.286 3.388c.16.24.355.356.551.356.196 0 .392-.116.675-.32.435-.355.87-.754 1.306-1.19v3.795l-.189 9.229c0 .275.218.5.493.5h4.695a.495.495 0 00.493-.5l-.189-9.229v-3.243a45.184 45.184 0 012.177 2.017h.435l2.851-3.323-.036-.355a51.369 51.369 0 00-2.06-1.488c.036-.036.058-.05.101-.094.95-1.03 1.778-2.133 2.852-3.874l-.037-.356-3.323-1.9-.355.08c-.776 1.588-1.408 2.647-2.474 4.07-.044-.023-.08-.052-.116-.073v-1.741c1.502-2.337 2.771-4.825 3.874-7.4l1.342 1.465c.196.196.356.275.472.275.16 0 .32-.08.551-.319.24-.24.436-.471.675-.71l.036 1.545v3.874l-.116 4.868.276.276 2.416-.036c-1.756 2.785-4.128 4.976-7.415 7.044-.189.116-.225.385-.065.537l2.655 2.62c.196.195.356.275.551.275.117 0 .24-.036.392-.16a31.619 31.619 0 003.563-2.851c.674.87 1.465 1.698 2.292 2.416-2.517.914-5.579 1.422-9.548 1.777-.21.022-.34.254-.232.436l2.068 3.598c.24.436.435.4.907.356 4.629-.552 8.27-1.466 11.31-3.084 2.692 1.343 5.696 2.337 8.859 2.924.595.08.675.037.907-.355l2.293-3.983a.367.367 0 00-.283-.544l.021.014zm-15.46-20.314c0-.087.072-.16.16-.16h7.117c.087 0 .16.073.16.16v1.066c0 .087-.073.16-.16.16H87.91a.161.161 0 01-.16-.16v-1.066zm0 5.499v-1.11c0-.087.072-.16.16-.16h7.117c.087 0 .16.073.16.16v1.11c0 .087-.073.16-.16.16H87.91a.161.161 0 01-.16-.16zm3.606 11.354c-1.067-.674-2.017-1.465-2.931-2.336h5.34c-.712.87-1.503 1.662-2.417 2.336h.008zM139.4 23.615h3.998l6.566-.021.276.275v3.432l-.276.276-6.566.036H139.4v1.582h8.707l6.565.036.276.275v3.642l-.276.276-6.565-.116h-5.892c3.788 1.836 7.219 3.25 12.37 4.303.254.05.378.34.225.55l-2.691 3.788c-.116.196-.24.276-.472.276-.116 0-.319 0-.515-.08-5.304-1.502-8.322-3.345-11.804-5.76l.043 6.072a.412.412 0 01-.406.413h-4.469a.404.404 0 01-.406-.399l-.095-5.847c-3.482 2.292-6.275 3.889-11.064 5.427-.239.08-.399.116-.515.116-.319 0-.435-.16-.595-.356l-2.699-3.482a.327.327 0 01.182-.515c5.194-1.335 8.234-2.598 11.724-4.513h-5.695l-6.37.05-.276-.275v-3.577l.276-.275 6.37-.037h8.582v-1.581h-3.721l-6.566-.044-.276-.276v-3.402l.276-.276h10.287v-1.545h-12.536l-.276-.283v-3.555l.276-.276h7.516c-.196-.907-.472-1.777-.755-2.648h-3.047l-6.37.116-.275-.276V11.37l.275-.276 4.948-.022c-.471-1.19-1.03-2.372-1.502-3.207l.196-.319 4.157-1.386.32.117c.754 1.305 1.661 3.163 2.336 4.824h1.262V5.325l.276-.32h4.629l.319.277V11.1h1.937V5.325l.276-.32h4.788l.319.277V11.1h1.19c.871-1.698 1.582-3.519 1.981-4.984l.399-.16 4.868 1.582.116.399a45.605 45.605 0 01-1.741 3.127l4.904.022.276.275v3.773l-.276.276-6.37-.116h-2.292c-.276.907-.675 1.777-1.03 2.648h7.197l.275.276v3.569l-.275.276h-12.777v1.545l-.029.007zm-5.891-8.307c.356.87.631 1.741.907 2.648h5.064c.24-.87.435-1.741.631-2.648h-6.609.007zm69.693 8.032c.08 1.662.116 3.287.276 4.948.595-1.386 1.03-2.808 1.385-4.157l.32-.16 3.206 2.177.16.399a37.51 37.51 0 01-4.077 8.27c.275.988.573 1.778.769 1.778.333 0 1.066-.645 1.429-3.373a.34.34 0 01.551-.218l2.133 1.683c.436.356.595.552.515 1.03-.631 5.028-2.51 6.74-4.766 6.74-1.422 0-2.931-.71-4.114-3.242-1.11 1.146-2.336 2.176-3.598 3.126-.24.196-.472.276-.675.276-.203 0-.392-.08-.631-.276l-2.561-2.082a.38.38 0 01.029-.617 25.007 25.007 0 001.668-1.255l-2.256-.08h-7.161a.385.385 0 01-.384-.398l.181-4.905V29.05l-.116-4.077.276-.276 3.758.116h3.722l3.758-.116.239.276-.116 3.874v5.028l.08 2.728c.791-.791 1.582-1.626 2.256-2.496-.674-3.562-.87-7.161-1.03-10.76h-8.307l-5.42.117-.275-.24V19.43l.239-.276 2.489.036c-.356-1.306-.755-2.691-1.306-4.034l.116-.319 3.207-1.19.319.24c.595 1.226 1.066 2.416 1.581 4.113l-.159.356-2.452.87 1.661.037h1.465a46.694 46.694 0 001.19-5.616l.08-.08h-3.642l-3.918.117-.275-.24v-2.851h-1.227v18.399l.189 13.545c0 .21-.167.385-.377.385h-4.179a.38.38 0 01-.377-.385l.116-7.726c-1.858.674-4.114 1.306-6.646 2.017l-.356-.196-1.342-4.47.196-.355c.675-.116 1.263-.196 1.857-.32V10.6h-1.422l-.275-.275V6.21l.355-.196H185.1l.276.276v3.083l3.642-.014V6.363l.24-.275h4.353l.275.275V9.36l3.403.014.239.196v3.918l-.239.196-3.838-.116 3.243 1.226.16.355c-.479 1.546-.871 2.888-1.306 4.114h2.771c-.08-3.519-.116-7.872-.116-13.408l.24-.319h4.353l.275.276v5.064l3.004-1.778.276.116c1.306 2.177 1.821 3.403 2.416 5.384l-.116.355-3.599 2.177-.276-.16c-.471-1.777-.95-3.359-1.697-5.02.036 2.452.036 4.868.079 7.32l5.659-.116.276.24v3.837l-.276.24-5.579-.116-.036-.015zm-23.971-9.402v-3.185a.226.226 0 00-.225-.225h-1.524a.225.225 0 00-.224.225v3.185c0 .123.101.224.224.224h1.524a.226.226 0 00.225-.224zm-1.981 4.686v3.345c0 .123.102.225.225.225h1.524a.226.226 0 00.225-.225v-3.345a.226.226 0 00-.225-.224h-1.524a.226.226 0 00-.225.224zm0 8.032v3.678c0 .145.138.254.283.225.508-.123 1.001-.247 1.517-.363a.227.227 0 00.174-.225v-3.308a.226.226 0 00-.225-.225h-1.524a.226.226 0 00-.225.225v-.007zm15.432 1.632h-2.619a.229.229 0 00-.232.232v1.118c0 .13.101.232.232.232h2.619a.229.229 0 00.232-.232V28.52a.229.229 0 00-.232-.232zm-2.851 5.137v1.16a.23.23 0 00.232.233h2.619a.229.229 0 00.232-.232v-1.161a.229.229 0 00-.232-.232h-2.619a.229.229 0 00-.232.232zm56.401-26.38c-.036 4.273-.16 7.712-.515 10.919 3.083 9.773 8.626 14.873 16.97 19.226l-3.758 4.904a.54.54 0 01-.436.24c-.159 0-.355-.08-.595-.196-6.566-3.439-11.593-8.902-14.321-15.229-2.416 6.682-7.676 12.145-14.561 15.505-.196.08-.356.16-.515.16-.117 0-.24-.08-.4-.197l-3.954-4.433c7.481-3.482 12.537-8.307 14.358-15.351.907-3.52 1.466-8.387 1.306-15.744l.276-.276 5.855.196.276.276h.014z" fill="#212C30"/><path d="M32.401 4.795L43.023.087c.682-.305 1.313.196 1.168.929l-2.19 11.412c-.124.638-.864 1.016-1.307.667l-8.648-6.878c-.442-.348-.24-1.153.355-1.422z" fill="#258FC7"/><path d="M18.37 11.39l9.229-4.033c.885-.384 1.683.261 1.494 1.212L26.996 19.16c-.203 1.016-1.378 1.61-2.075 1.045l-7.305-5.899c-.907-.732-.48-2.386.747-2.923l.007.007z" fill="#BDCF24"/><path d="M1.35 19.37l10.091-4.41c.965-.421 1.843.283 1.64 1.32L10.79 27.867c-.218 1.11-1.502 1.763-2.271 1.146L.53 22.57c-.987-.798-.53-2.611.82-3.2z" fill="#EDD723"/><path d="M13.407 28.542L23.5 24.13c.965-.421 1.843.283 1.64 1.32l-2.293 11.587c-.217 1.11-1.501 1.763-2.27 1.146l-7.988-6.45c-.987-.798-.53-2.612.82-3.2v.008z" fill="#E8971F"/><path d="M24.921 38.119l10.092-4.411c.965-.42 1.843.283 1.64 1.32L34.36 46.615c-.217 1.11-1.502 1.763-2.27 1.146l-7.989-6.45c-.986-.798-.53-2.612.82-3.2v.008z" fill="#DD5519"/><path d="M30.116 20.728l9.229-4.034c.885-.385 1.683.261 1.494 1.212l-2.096 10.592c-.204 1.016-1.379 1.61-2.076 1.045l-7.305-5.899c-.907-.732-.48-2.387.747-2.923l.007.007z" fill="#4B9E36"/><path d="M286.244 7.661h1.647v.32h.022a2.362 2.362 0 011.393-.443c1.385 0 2.568 1.11 2.568 2.793 0 1.684-1.262 2.946-2.866 2.946a2.46 2.46 0 01-1.066-.225l-.022.014v2.525h-1.683v-7.93h.007zm2.547 4.245c.907 0 1.393-.653 1.393-1.473 0-.82-.486-1.473-1.328-1.473a1.52 1.52 0 00-.929.32v2.4c.225.124.544.226.864.226zm4.15-4.244h1.647v.732l.022.015c.377-.53.907-.805 1.581-.805.109 0 .232.007.356.043V9.23a1.78 1.78 0 00-.45-.058c-.588 0-1.074.174-1.473.645v3.345h-1.683v-5.5zm4.099 2.749c0-1.618 1.299-2.873 3.033-2.873s3.032 1.255 3.032 2.873c0 1.618-1.298 2.866-3.032 2.866s-3.033-1.255-3.033-2.866zm4.389 0c0-.783-.587-1.415-1.349-1.415s-1.35.632-1.35 1.415c0 .784.588 1.415 1.35 1.415.762 0 1.349-.631 1.349-1.415zm6.407 2.424l-.022-.015c-.363.29-.863.457-1.408.457-1.349 0-2.539-1.066-2.539-2.771 0-1.705 1.234-2.968 2.844-2.968.421 0 .762.102 1.067.225l.021-.014V4.694h1.684v8.467h-1.647v-.326zm-.037-1.256V9.178a1.81 1.81 0 00-.863-.225c-.907 0-1.371.69-1.371 1.495 0 .805.464 1.45 1.306 1.45.377 0 .689-.144.928-.319zm6.697 1.154h-.022a2.638 2.638 0 01-1.625.544c-.631 0-1.117-.189-1.473-.588-.355-.399-.486-.856-.486-1.617v-3.41h1.683v3.134c0 .399.058.646.211.805.152.167.421.232.674.232.378 0 .733-.167 1.016-.377V7.654h1.683v5.492h-1.661v-.42.007zm5.818.544c-1.835 0-3.09-1.197-3.09-2.859 0-1.661 1.364-2.88 3.134-2.88.595 0 1.197.145 1.618.414v1.494c-.436-.29-.943-.479-1.488-.479-.95 0-1.581.61-1.581 1.444 0 .835.646 1.444 1.603 1.444.552 0 1.154-.21 1.509-.486v1.494c-.442.29-1.095.421-1.705.421v-.007zm5.674 0c-1.828 0-3.105-1.11-3.105-2.859 0-1.748 1.306-2.88 2.844-2.88 1.371 0 2.612.863 2.612 2.735 0 .189-.008.436-.037.573h-3.707c.167.755.784 1.096 1.596 1.096.617 0 1.277-.225 1.85-.573v1.415c-.522.311-1.327.486-2.06.486l.007.007zm.805-3.468c-.087-.675-.544-.987-1.088-.987s-.994.334-1.117.987h2.205zm6.32 3.026l-.022-.015c-.363.29-.864.457-1.408.457-1.349 0-2.539-1.066-2.539-2.771 0-1.705 1.233-2.968 2.844-2.968.421 0 .762.102 1.067.225l.021-.014V4.694h1.684v8.467h-1.647v-.326zm-.037-1.256V9.178a1.81 1.81 0 00-.863-.225c-.907 0-1.371.69-1.371 1.495 0 .805.464 1.45 1.306 1.45.377 0 .689-.144.928-.319zm5.71-6.885h1.683v3.258l.022.014c.385-.29.863-.42 1.386-.42 1.371 0 2.561 1.03 2.561 2.757 0 1.726-1.241 2.981-2.96 2.981-.595 0-1.11-.145-1.553-.355l-1.139.276v-8.51zm2.561 7.212c.864 0 1.393-.631 1.393-1.516 0-.835-.479-1.43-1.32-1.43-.385 0-.719.13-.951.298v2.438c.225.123.544.21.878.21zm4.295 3.685l1.429-3.054-2.213-4.876h1.771l.566 1.364c.246.588.478 1.16.696 1.741h.022c.247-.61.486-1.182.74-1.77l.573-1.328h1.676l-3.548 7.93h-1.719l.007-.007z" fill="#212C30"/><path d="M319.959 34.737c0-.116-.138-.188-.24-.123a3.902 3.902 0 01-2.14.638c-1.857 0-3.076-1.298-3.076-2.974 0-1.676 1.226-2.982 2.989-2.982.762 0 1.509.24 2.097.595.101.058.232-.007.232-.123v-1.161a.153.153 0 00-.08-.13 5.061 5.061 0 00-2.256-.516c-2.656 0-4.462 1.93-4.462 4.339 0 2.408 1.85 4.295 4.469 4.295.827 0 1.698-.182 2.38-.56a.141.141 0 00.072-.122v-1.176h.015zm1.422-1.109c0 1.676 1.32 2.974 3.083 2.974 1.763 0 3.084-1.298 3.084-2.974 0-1.676-1.321-2.975-3.084-2.975-1.763 0-3.083 1.299-3.083 2.975zm1.4 0c0-.987.718-1.749 1.683-1.749.965 0 1.683.762 1.683 1.749 0 .987-.718 1.748-1.683 1.748-.965 0-1.683-.761-1.683-1.748zm7.756-5.993h-1.11a.145.145 0 00-.145.145v8.546c0 .08.065.145.145.145h1.11c.08 0 .145-.064.145-.145V27.78a.145.145 0 00-.145-.145zm1.872 5.993c0 1.676 1.32 2.974 3.083 2.974 1.763 0 3.084-1.298 3.084-2.974 0-1.676-1.321-2.975-3.084-2.975-1.763 0-3.083 1.299-3.083 2.975zm1.4 0c0-.987.718-1.749 1.683-1.749.965 0 1.683.762 1.683 1.749 0 .987-.718 1.748-1.683 1.748-.965 0-1.683-.761-1.683-1.748zm6.508 2.699c0 .08.065.145.145.145h1.11c.08 0 .145-.066.145-.145v-3.389s.007-.058.029-.08c.392-.529.914-.805 1.553-.805.109 0 .196.008.283.022.094.015.181-.05.181-.145v-1.045a.14.14 0 00-.109-.138 1.966 1.966 0 00-1.915.834s-.015.008-.022 0c0 0-.007-.007-.007-.014v-.645a.145.145 0 00-.145-.146h-1.096a.145.145 0 00-.145.146v5.405h-.007zm10.592.166a.149.149 0 00.138.102h1.342a.149.149 0 00.138-.102l1.088-3.562c.203-.69.399-1.357.588-2.01 0 0 .007-.014.014-.014.008 0 .015 0 .015.014.181.653.392 1.343.595 2.032l1.081 3.533c.022.058.072.102.138.102h1.342a.142.142 0 00.138-.102l2.503-8.206a.147.147 0 00-.138-.188h-1.19a.142.142 0 00-.138.101l-1.197 4.02a85.274 85.274 0 00-.631 2.242s-.007.014-.015.014c-.007 0-.014 0-.014-.014-.21-.748-.399-1.4-.653-2.228l-1.226-4.026a.149.149 0 00-.138-.102h-.863a.14.14 0 00-.138.102l-1.226 4.019c-.218.726-.457 1.53-.653 2.242 0 0-.008.014-.015.014-.007 0-.014 0-.014-.014a93.067 93.067 0 00-.632-2.228l-1.197-4.026a.147.147 0 00-.137-.102h-1.256a.146.146 0 00-.137.189l2.488 8.206v-.008zm11.079-7.581c0 .479.392.878.863.878a.89.89 0 00.878-.878.878.878 0 00-.863-.878.89.89 0 00-.878.878zm.174 7.545c0 .08.065.145.145.145h1.11c.08 0 .145-.065.145-.145v-5.485a.145.145 0 00-.145-.145h-1.11a.145.145 0 00-.145.145v5.485zm6.312.001c0 .08.065.145.145.145h1.175c.08 0 .146-.066.146-.145v-6.886c0-.08.065-.145.145-.145h2.474a.146.146 0 00.145-.145v-1.037a.146.146 0 00-.145-.145h-6.675a.145.145 0 00-.145.145v1.037c0 .08.065.145.145.145h2.452c.08 0 .145.066.145.145v6.886h-.007zm6.406-.001c0 .08.066.145.145.145h1.11c.08 0 .146-.065.146-.145v-3.722c0-.036.014-.072.036-.094.37-.377.914-.69 1.465-.69.298 0 .552.095.74.32.16.188.233.442.233.986v3.2c0 .08.065.145.145.145h1.11c.08 0 .145-.065.145-.145v-3.446c0-.856-.153-1.335-.486-1.705-.356-.4-.893-.61-1.502-.61-.747 0-1.386.327-1.85.755h-.022s-.007-.007-.007-.015V27.78a.145.145 0 00-.145-.145h-1.11a.145.145 0 00-.145.145v8.677h-.008z" fill="#070001"/><path d="M286.665 34.498a2.6 2.6 0 00.457.204l3.454-3.454a2.584 2.584 0 00-.204-.457l-3.707 3.707zm4.012-2.902l-3.207 3.207c.203.036.406.05.617.05l2.634-2.633a2.99 2.99 0 00-.051-.617l.007-.007zm-.015 1.118l-2.067 2.068a2.658 2.658 0 001.335-.733c.377-.385.624-.849.732-1.335zm-.456-2.191a2.404 2.404 0 00-.276-.327c-.007-.007-.022-.015-.029-.029l-3.853 3.852s.015.022.029.03c.102.101.218.195.327.275l3.809-3.809-.007.008zm-.545-.567a2.726 2.726 0 00-3.823 3.823l3.823-3.823z" fill="#8D196F"/><path d="M289.096 28.658c.145.08.297.145.457.203l3.453-3.454a2.58 2.58 0 00-.203-.457l-3.707 3.708zm3.533-3.983a2.728 2.728 0 00-4.941 1.596c0 .907.45 1.712 1.132 2.213l3.809-3.81zm.522 1.595a3.11 3.11 0 00-.051-.522l-3.199 3.2c.167.029.341.05.522.05h.095l2.626-2.626v-.094l.007-.008zm-.072.603l-2.061 2.06a2.742 2.742 0 002.061-2.06z" fill="#D0211A"/><path d="M298.934 23.282l-3.236 3.235c.196.044.399.066.602.059l2.699-2.7c0-.203-.022-.398-.058-.602l-.007.008zm.014 1.088l-2.162 2.162a2.776 2.776 0 001.415-.747c.399-.4.653-.893.747-1.415zm-.109-1.436a2.71 2.71 0 00-.638-1.016 2.728 2.728 0 00-3.86 0 2.727 2.727 0 001.016 4.498l3.482-3.482z" fill="#E7961F"/><path d="M294.899 42.747c.146.087.298.153.45.21l3.483-3.482a2.812 2.812 0 00-.211-.45l-3.722 3.722zm4.035-2.931l-3.236 3.236c.196.043.399.065.602.058l2.699-2.7c0-.202-.022-.398-.058-.601l-.007.007zm-.479-1.059a3.332 3.332 0 00-.254-.297l-.044-.044-3.852 3.853.043.043a3.3 3.3 0 00.298.254l3.816-3.816-.007.007zm-.545-.545a2.724 2.724 0 00-3.576.247 2.74 2.74 0 00-.247 3.577l3.816-3.816.007-.008zm1.038 2.692l-2.162 2.162a2.776 2.776 0 001.415-.747c.399-.399.653-.892.747-1.415z" fill="#248EC6"/><path d="M304.781 26.866l-2.075 2.075a2.734 2.734 0 002.075-2.075zm-2.575 2.132l2.633-2.633v-.087a2.725 2.725 0 00-2.728-2.728 2.725 2.725 0 00-2.728 2.728 2.725 2.725 0 002.728 2.728h.087l.008-.008z" fill="#EAE33C"/><path d="M300.791 40.353c.138.08.29.145.443.196l3.46-3.46a2.418 2.418 0 00-.196-.444l-3.707 3.708zm4.055-2.387c0-.181-.021-.363-.05-.53l-3.207 3.207c.174.037.348.051.53.051h.079l2.648-2.648v-.08zm-.065.581l-2.082 2.082a2.731 2.731 0 002.082-2.082zm-.45-2.17a2.724 2.724 0 10-3.801 3.802l3.801-3.802z" fill="#1E8A3B"/><path d="M307.219 31.61l-3.185 3.186c.196.036.399.05.595.043l2.64-2.64c0-.197 0-.4-.043-.595l-.007.007zm-.022 1.103l-2.068 2.068a2.706 2.706 0 002.075-2.075l-.007.007zm-.072-1.451a2.727 2.727 0 00-4.52-1.074 2.727 2.727 0 001.073 4.52l3.447-3.446z" fill="#91B526"/><path d="M293.086 38.554l-2.075 2.075a2.734 2.734 0 002.075-2.075zm-3.998 1.792c.145.08.298.152.457.203l3.454-3.453a2.654 2.654 0 00-.203-.457l-3.715 3.714.007-.007zm4.063-2.38c0-.181-.022-.355-.051-.53l-3.206 3.207c.174.037.348.051.529.051h.087l2.634-2.634v-.087l.007-.007zm-.522-1.604a2.87 2.87 0 00-.305-.355l-3.852 3.852-.044-.043c.124.13.254.246.399.355l3.809-3.809h-.007zm-1.234-.942a2.725 2.725 0 00-3.518 3.519l3.518-3.52zm-3.38 3.823c.072.137.159.268.254.384l3.823-3.823a2.74 2.74 0 00-.384-.254l-3.686 3.685-.007.008z" fill="#15679F"/></g><defs><clipPath id="clip0_711_838"><path fill="#fff" d="M0 0h380.147v48H0z"/></clipPath></defs></svg>