<svg width="381" height="48" fill="none" xmlns="http://www.w3.org/2000/svg"><g clip-path="url(#clip0_711_703)"><path d="M103.211 37.785c-2.655-.276-5.042-.704-7.11-1.364 1.386-1.306 2.692-2.852 3.955-4.825.159-.276.275-.471.275-.71 0-.197-.116-.436-.399-.712l-2.256-2.133-2.692.196h-5.579c.32-.515.595-1.03.827-1.545h4.194l5.818.116.276-.276-.116-4.868V17.79l.094-3.693-.276-.276-5.905-.014h-6.095l-4.033-.08c.275-.4.667-1.038.95-1.43h11.594l3.562.022.276-.276.043-3.598-.276-.276-3.613.015h-9.257c.32-.675.595-1.342.827-1.98l-.24-.32-4.273-1.19-.399.116c-.907 2.568-2.496 5.144-4.512 7.4l-1.466-1.342-2.017.116V5.29l-.24-.32H70.36l-.275.276v5.696l-3.954-.08-.24.24v4.389l.24.319 4.824-.08h2.336c-1.726 4.107-4.2 7.618-7.922 10.788a.496.496 0 00-.095.66l2.286 3.389c.16.24.355.355.551.355.196 0 .392-.116.675-.319.435-.355.87-.754 1.306-1.19v3.795l-.189 9.228c0 .276.218.5.493.5h4.695a.495.495 0 00.493-.5l-.189-9.228v-3.243a45.184 45.184 0 012.177 2.017h.435l2.851-3.323-.036-.356a51.369 51.369 0 00-2.06-1.487c.036-.036.058-.05.101-.094.95-1.03 1.778-2.133 2.852-3.875l-.037-.355-3.323-1.9-.355.079c-.776 1.589-1.408 2.648-2.474 4.07-.044-.022-.08-.05-.116-.072v-1.742c1.502-2.336 2.771-4.824 3.874-7.4l1.342 1.465c.196.196.356.276.472.276.16 0 .32-.08.551-.319.24-.24.436-.472.675-.711l.036 1.545v3.875l-.116 4.868.276.276 2.416-.037c-1.756 2.786-4.128 4.977-7.415 7.045-.189.116-.225.385-.065.537l2.655 2.619c.196.196.356.276.551.276.117 0 .24-.037.392-.16a31.608 31.608 0 003.563-2.851 17.24 17.24 0 002.292 2.416c-2.517.914-5.579 1.422-9.548 1.777-.21.022-.34.254-.232.435l2.068 3.6c.24.434.435.398.907.355 4.629-.552 8.27-1.466 11.31-3.084 2.692 1.342 5.696 2.336 8.859 2.924.595.08.675.036.907-.356l2.293-3.983a.367.367 0 00-.283-.544l.021.015zM87.751 17.47c0-.087.072-.16.16-.16h7.117c.087 0 .16.073.16.16v1.067c0 .087-.073.16-.16.16H87.91a.161.161 0 01-.16-.16V17.47zm0 5.5v-1.11c0-.087.072-.16.16-.16h7.117c.087 0 .16.073.16.16v1.11c0 .087-.073.16-.16.16H87.91a.161.161 0 01-.16-.16zm3.606 11.354c-1.067-.675-2.017-1.465-2.931-2.336h5.34c-.712.87-1.503 1.661-2.417 2.336h.008zM139.4 23.616h3.998l6.566-.022.276.275v3.432l-.276.276-6.566.036H139.4v1.582h8.707l6.565.036.276.276v3.642l-.276.275-6.565-.116h-5.892c3.788 1.836 7.219 3.25 12.37 4.303.254.05.378.34.225.551l-2.691 3.787c-.116.196-.24.276-.472.276-.116 0-.319 0-.515-.08-5.304-1.502-8.322-3.345-11.804-5.76l.043 6.072a.412.412 0 01-.406.414h-4.469a.404.404 0 01-.406-.4l-.095-5.847c-3.482 2.293-6.275 3.889-11.064 5.427-.239.08-.399.116-.515.116-.319 0-.435-.16-.595-.356l-2.699-3.482a.327.327 0 01.182-.515c5.194-1.335 8.234-2.598 11.724-4.513h-5.695l-6.37.05-.276-.275V29.5l.276-.275 6.37-.037h8.582v-1.581h-3.721l-6.566-.044-.276-.275v-3.403l.276-.276h10.287v-1.545h-12.536l-.276-.283v-3.555l.276-.276h7.516c-.196-.907-.472-1.777-.755-2.648h-3.047l-6.37.116-.275-.275V11.37l.275-.276 4.948-.022c-.471-1.19-1.03-2.372-1.502-3.206l.196-.32 4.157-1.385.32.116c.754 1.306 1.661 3.163 2.336 4.824h1.262V5.325l.276-.319h4.629l.319.276V11.1h1.937V5.325l.276-.319h4.788l.319.276V11.1h1.19c.871-1.697 1.582-3.518 1.981-4.984l.399-.16 4.868 1.582.116.4a45.61 45.61 0 01-1.741 3.126l4.904.022.276.275v3.773l-.276.276-6.37-.116h-2.292c-.276.907-.675 1.777-1.03 2.648h7.197l.275.276v3.57l-.275.275h-12.777v1.545l-.029.008zm-5.891-8.308c.356.871.631 1.742.907 2.648h5.064c.24-.87.435-1.74.631-2.648h-6.609.007zm69.693 8.032c.08 1.661.116 3.286.276 4.948.595-1.386 1.03-2.808 1.385-4.157l.32-.16 3.206 2.177.16.399a37.509 37.509 0 01-4.077 8.27c.275.987.573 1.778.769 1.778.333 0 1.066-.646 1.429-3.374a.34.34 0 01.551-.217l2.133 1.683c.436.355.595.551.515 1.03-.631 5.028-2.51 6.74-4.766 6.74-1.422 0-2.931-.71-4.114-3.243-1.11 1.146-2.336 2.177-3.598 3.127-.24.196-.472.276-.675.276-.203 0-.392-.08-.631-.276l-2.561-2.082a.38.38 0 01.029-.617 25.043 25.043 0 001.668-1.255l-2.256-.08h-7.161a.385.385 0 01-.384-.399l.181-4.904V29.05l-.116-4.078.276-.276 3.758.117h3.722l3.758-.116.239.275-.116 3.874v5.028l.08 2.728c.791-.79 1.582-1.625 2.256-2.496-.674-3.562-.87-7.16-1.03-10.759h-8.307l-5.42.116-.275-.24V19.43l.239-.275 2.489.036c-.356-1.306-.755-2.692-1.306-4.034l.116-.32 3.207-1.19.319.24c.595 1.227 1.066 2.416 1.581 4.114l-.159.355-2.452.871 1.661.036h1.465a46.69 46.69 0 001.19-5.615l.08-.08h-3.642l-3.918.116-.275-.24v-2.85h-1.227V28.99l.189 13.546a.38.38 0 01-.377.384h-4.179a.38.38 0 01-.377-.384l.116-7.727c-1.858.675-4.114 1.306-6.646 2.017l-.356-.196-1.342-4.469.196-.355c.675-.117 1.263-.196 1.857-.32V10.6h-1.422l-.275-.276V6.21l.355-.195H185.1l.276.275v3.084l3.642-.015V6.363l.24-.276h4.353l.275.276v2.996l3.403.015.239.196v3.917l-.239.196-3.838-.116 3.243 1.226.16.356c-.479 1.545-.871 2.887-1.306 4.113h2.771c-.08-3.518-.116-7.871-.116-13.407l.24-.32h4.353l.275.276v5.065l3.004-1.778.276.116c1.306 2.177 1.821 3.403 2.416 5.383l-.116.356-3.599 2.176-.276-.16c-.471-1.777-.95-3.358-1.697-5.02.036 2.453.036 4.868.079 7.32l5.659-.115.276.239v3.838l-.276.24-5.579-.117-.036-.014zm-23.971-9.403v-3.185a.226.226 0 00-.225-.225h-1.524a.225.225 0 00-.224.225v3.185c0 .123.101.225.224.225h1.524a.226.226 0 00.225-.225zm-1.981 4.687v3.345c0 .123.102.224.225.224h1.524a.226.226 0 00.225-.224v-3.345a.226.226 0 00-.225-.225h-1.524a.226.226 0 00-.225.225zm0 8.031v3.679c0 .145.138.254.283.225.508-.124 1.001-.247 1.517-.363a.227.227 0 00.174-.225v-3.308a.226.226 0 00-.225-.225h-1.524a.226.226 0 00-.225.225v-.008zm15.432 1.633h-2.619a.229.229 0 00-.232.232v1.117c0 .13.101.232.232.232h2.619a.229.229 0 00.232-.232V28.52a.229.229 0 00-.232-.232zm-2.851 5.136v1.161c0 .13.101.232.232.232h2.619a.229.229 0 00.232-.232v-1.16a.229.229 0 00-.232-.233h-2.619a.229.229 0 00-.232.232zm56.401-26.379c-.036 4.273-.16 7.712-.515 10.919 3.083 9.772 8.626 14.873 16.97 19.226l-3.758 4.904a.54.54 0 01-.436.24c-.159 0-.355-.08-.595-.196-6.566-3.44-11.593-8.902-14.321-15.229-2.416 6.682-7.676 12.145-14.561 15.505-.196.08-.356.16-.515.16-.117 0-.24-.08-.4-.197l-3.954-4.433c7.481-3.482 12.537-8.307 14.358-15.352.907-3.518 1.466-8.386 1.306-15.743l.276-.276 5.855.196.276.276h.014z" fill="#212C30"/><path d="M32.401 4.796L43.023.087c.682-.305 1.313.196 1.168.929l-2.19 11.412c-.124.638-.864 1.016-1.307.667l-8.648-6.877c-.442-.349-.24-1.154.355-1.422z" fill="#258FC7"/><path d="M18.37 11.39l9.229-4.033c.885-.385 1.683.26 1.494 1.211l-2.097 10.593c-.203 1.015-1.378 1.61-2.075 1.044l-7.305-5.898c-.907-.733-.48-2.387.747-2.924l.007.008z" fill="#BDCF24"/><path d="M1.35 19.371l10.091-4.41c.965-.422 1.843.282 1.64 1.32L10.79 27.867c-.218 1.11-1.502 1.763-2.271 1.146L.53 22.571c-.987-.798-.53-2.612.82-3.2z" fill="#EDD723"/><path d="M13.407 28.542L23.5 24.13c.965-.421 1.843.282 1.64 1.32l-2.293 11.587c-.217 1.11-1.501 1.763-2.27 1.146l-7.988-6.45c-.987-.798-.53-2.612.82-3.2v.008z" fill="#E8971F"/><path d="M24.921 38.118l10.092-4.41c.965-.421 1.843.282 1.64 1.32L34.36 46.614c-.217 1.11-1.502 1.763-2.27 1.147L24.1 41.31c-.986-.798-.53-2.612.82-3.2v.008z" fill="#DD5519"/><path d="M30.116 20.728l9.229-4.034c.885-.384 1.683.261 1.494 1.212l-2.096 10.592c-.204 1.016-1.379 1.61-2.076 1.045l-7.305-5.898c-.907-.733-.48-2.387.747-2.924l.007.007z" fill="#4B9E36"/><path d="M286.244 7.661h1.647v.32h.022a2.362 2.362 0 011.393-.443c1.385 0 2.568 1.11 2.568 2.793 0 1.684-1.262 2.946-2.866 2.946a2.46 2.46 0 01-1.066-.225l-.022.014v2.525h-1.683v-7.93h.007zm2.547 4.245c.907 0 1.393-.653 1.393-1.473 0-.82-.486-1.473-1.328-1.473a1.52 1.52 0 00-.929.32v2.4c.225.124.544.226.864.226zm4.15-4.245h1.647v.733l.022.015c.377-.53.907-.806 1.581-.806.109 0 .232.008.356.044v1.582a1.78 1.78 0 00-.45-.058c-.588 0-1.074.174-1.473.645v3.345h-1.683v-5.5zm4.099 2.75c0-1.618 1.299-2.873 3.033-2.873s3.032 1.255 3.032 2.873c0 1.618-1.298 2.866-3.032 2.866s-3.033-1.255-3.033-2.866zm4.389 0c0-.783-.587-1.415-1.349-1.415s-1.35.632-1.35 1.415c0 .784.588 1.415 1.35 1.415.762 0 1.349-.631 1.349-1.415zm6.407 2.423l-.022-.014c-.363.29-.863.457-1.408.457-1.349 0-2.539-1.067-2.539-2.772 0-1.705 1.234-2.967 2.844-2.967.421 0 .762.102 1.067.225l.021-.015V4.694h1.684v8.467h-1.647v-.327zm-.037-1.255V9.178a1.809 1.809 0 00-.863-.225c-.907 0-1.371.69-1.371 1.494 0 .806.464 1.451 1.306 1.451.377 0 .689-.145.928-.319zm6.697 1.154h-.022a2.638 2.638 0 01-1.625.544c-.631 0-1.117-.189-1.473-.588-.355-.399-.486-.856-.486-1.618v-3.41h1.683v3.135c0 .399.058.645.211.805.152.167.421.232.674.232.378 0 .733-.167 1.016-.377V7.654h1.683v5.492h-1.661v-.42.007zm5.818.544c-1.835 0-3.09-1.197-3.09-2.859 0-1.661 1.364-2.88 3.134-2.88.595 0 1.197.145 1.618.414v1.494c-.436-.29-.943-.479-1.488-.479-.95 0-1.581.61-1.581 1.444 0 .835.646 1.444 1.603 1.444.552 0 1.154-.21 1.509-.486v1.494c-.442.29-1.095.421-1.705.421v-.007zm5.674 0c-1.828 0-3.105-1.11-3.105-2.859 0-1.748 1.306-2.88 2.844-2.88 1.371 0 2.612.863 2.612 2.735 0 .189-.008.436-.037.573h-3.707c.167.755.784 1.096 1.596 1.096.617 0 1.277-.225 1.85-.573v1.415c-.522.311-1.327.486-2.06.486l.007.007zm.805-3.468c-.087-.675-.544-.987-1.088-.987s-.994.334-1.117.987h2.205zm6.32 3.025l-.022-.014c-.363.29-.864.457-1.408.457-1.349 0-2.539-1.067-2.539-2.772 0-1.705 1.233-2.967 2.844-2.967.421 0 .762.102 1.067.225l.021-.015V4.694h1.684v8.467h-1.647v-.327zm-.037-1.255V9.178a1.809 1.809 0 00-.863-.225c-.907 0-1.371.69-1.371 1.494 0 .806.464 1.451 1.306 1.451.377 0 .689-.145.928-.319zm5.71-6.885h1.683v3.258l.022.014c.385-.29.863-.42 1.386-.42 1.371 0 2.561 1.03 2.561 2.756 0 1.727-1.241 2.982-2.96 2.982-.595 0-1.11-.145-1.553-.355l-1.139.275v-8.51zm2.561 7.212c.864 0 1.393-.632 1.393-1.517 0-.834-.479-1.429-1.32-1.429-.385 0-.719.13-.951.298v2.437c.225.124.544.21.878.21zm4.295 3.685l1.429-3.054-2.213-4.876h1.771l.566 1.364c.246.588.478 1.161.696 1.742h.022c.247-.61.486-1.183.74-1.77l.573-1.328h1.676l-3.548 7.93h-1.719l.007-.008z" fill="#212C30"/><path d="M319.959 34.738c0-.117-.138-.189-.24-.124a3.902 3.902 0 01-2.14.639c-1.857 0-3.076-1.299-3.076-2.975 0-1.676 1.226-2.982 2.989-2.982.762 0 1.509.24 2.097.595.101.058.232-.007.232-.123v-1.161a.153.153 0 00-.08-.13 5.061 5.061 0 00-2.256-.516c-2.656 0-4.462 1.93-4.462 4.339 0 2.409 1.85 4.295 4.469 4.295.827 0 1.698-.181 2.38-.559a.141.141 0 00.072-.123v-1.175h.015zm1.422-1.11c0 1.675 1.32 2.974 3.083 2.974 1.763 0 3.084-1.298 3.084-2.974 0-1.676-1.321-2.975-3.084-2.975-1.763 0-3.083 1.299-3.083 2.975zm1.4 0c0-.987.718-1.749 1.683-1.749.965 0 1.683.762 1.683 1.749 0 .986-.718 1.748-1.683 1.748-.965 0-1.683-.762-1.683-1.748zm7.756-5.993h-1.11a.145.145 0 00-.145.145v8.547c0 .08.065.145.145.145h1.11c.08 0 .145-.065.145-.145V27.78a.145.145 0 00-.145-.145zm1.872 5.993c0 1.675 1.32 2.974 3.083 2.974 1.763 0 3.084-1.298 3.084-2.974 0-1.676-1.321-2.975-3.084-2.975-1.763 0-3.083 1.299-3.083 2.975zm1.4 0c0-.987.718-1.749 1.683-1.749.965 0 1.683.762 1.683 1.749 0 .986-.718 1.748-1.683 1.748-.965 0-1.683-.762-1.683-1.748zm6.508 2.699c0 .08.065.145.145.145h1.11c.08 0 .145-.066.145-.145v-3.389s.007-.058.029-.08c.392-.53.914-.805 1.553-.805.109 0 .196.008.283.022.094.014.181-.05.181-.145v-1.045a.14.14 0 00-.109-.138 1.966 1.966 0 00-1.915.834s-.015.008-.022 0c0 0-.007-.007-.007-.014v-.646a.145.145 0 00-.145-.145h-1.096a.145.145 0 00-.145.145v5.406h-.007zm10.592.166a.149.149 0 00.138.102h1.342a.149.149 0 00.138-.102l1.088-3.562c.203-.69.399-1.357.588-2.01 0 0 .007-.014.014-.014.008 0 .015 0 .015.014.181.653.392 1.343.595 2.032l1.081 3.533c.022.058.072.102.138.102h1.342a.142.142 0 00.138-.102l2.503-8.205a.147.147 0 00-.138-.19h-1.19a.142.142 0 00-.138.102l-1.197 4.02a85.376 85.376 0 00-.631 2.242s-.007.014-.015.014c-.007 0-.014 0-.014-.014-.21-.748-.399-1.4-.653-2.228l-1.226-4.026a.15.15 0 00-.138-.102h-.863a.14.14 0 00-.138.102l-1.226 4.02c-.218.725-.457 1.53-.653 2.24 0 0-.008.015-.015.015-.007 0-.014 0-.014-.014a93.067 93.067 0 00-.632-2.227l-1.197-4.027a.147.147 0 00-.137-.102h-1.256a.146.146 0 00-.137.189l2.488 8.206v-.008zm11.079-7.581c0 .479.392.878.863.878a.89.89 0 00.878-.878.878.878 0 00-.863-.878.89.89 0 00-.878.878zm.174 7.545c0 .08.065.145.145.145h1.11c.08 0 .145-.065.145-.145v-5.485a.145.145 0 00-.145-.145h-1.11a.145.145 0 00-.145.145v5.485zm6.312 0c0 .08.065.145.145.145h1.175c.08 0 .146-.065.146-.145v-6.885c0-.08.065-.145.145-.145h2.474a.146.146 0 00.145-.145v-1.038a.146.146 0 00-.145-.145h-6.675a.145.145 0 00-.145.145v1.038c0 .08.065.145.145.145h2.452c.08 0 .145.065.145.145v6.885h-.007zm6.406 0c0 .08.066.145.145.145h1.11c.08 0 .146-.065.146-.145v-3.722c0-.036.014-.072.036-.094.37-.377.914-.69 1.465-.69.298 0 .552.095.74.32.16.188.233.442.233.987v3.2c0 .079.065.144.145.144h1.11c.08 0 .145-.065.145-.145v-3.446c0-.856-.153-1.335-.486-1.705-.356-.4-.893-.61-1.502-.61-.747 0-1.386.327-1.85.755h-.022s-.007-.007-.007-.015V27.78a.145.145 0 00-.145-.145h-1.11a.145.145 0 00-.145.145v8.677h-.008z" fill="#070001"/><path d="M286.665 34.498c.145.08.298.153.457.203l3.454-3.453a2.584 2.584 0 00-.204-.457l-3.707 3.707zm4.012-2.902l-3.207 3.207c.203.036.406.05.617.05l2.634-2.633c0-.203-.008-.413-.051-.617l.007-.007zm-.015 1.117l-2.067 2.068a2.658 2.658 0 001.335-.733c.377-.384.624-.849.732-1.335zm-.456-2.191a2.404 2.404 0 00-.276-.326c-.007-.007-.022-.015-.029-.03l-3.853 3.853s.015.022.029.03c.102.1.218.195.327.275l3.809-3.809-.007.007zm-.545-.566a2.726 2.726 0 00-3.823 3.824l3.823-3.824z" fill="#8D196F"/><path d="M289.096 28.658c.145.08.297.145.457.203l3.453-3.454a2.58 2.58 0 00-.203-.457l-3.707 3.708zm3.533-3.983a2.728 2.728 0 00-4.941 1.596c0 .907.45 1.712 1.132 2.213l3.809-3.81zm.522 1.595a3.11 3.11 0 00-.051-.521l-3.199 3.199c.167.029.341.05.522.05h.095l2.626-2.626v-.094l.007-.007zm-.072.603l-2.061 2.06a2.742 2.742 0 002.061-2.06z" fill="#D0211A"/><path d="M298.934 23.282l-3.236 3.235c.196.044.399.066.602.059l2.699-2.7c0-.203-.022-.398-.058-.602l-.007.008zm.014 1.088l-2.162 2.162a2.776 2.776 0 001.415-.747c.399-.4.653-.893.747-1.415zm-.109-1.437a2.71 2.71 0 00-.638-1.015 2.728 2.728 0 00-3.86 0 2.727 2.727 0 001.016 4.498l3.482-3.483z" fill="#E7961F"/><path d="M294.899 42.747c.146.087.298.153.45.21l3.483-3.482a2.812 2.812 0 00-.211-.45l-3.722 3.722zm4.035-2.931l-3.236 3.236c.196.044.399.065.602.058l2.699-2.699a3.41 3.41 0 00-.058-.602l-.007.007zm-.479-1.059a3.217 3.217 0 00-.254-.297l-.044-.044-3.852 3.852.043.044c.095.094.196.174.298.254l3.816-3.816-.007.007zm-.545-.544a2.724 2.724 0 00-3.576.246 2.74 2.74 0 00-.247 3.577l3.816-3.816.007-.007zm1.038 2.691l-2.162 2.162a2.776 2.776 0 001.415-.747c.399-.399.653-.892.747-1.415z" fill="#248EC6"/><path d="M304.781 26.866l-2.075 2.075a2.734 2.734 0 002.075-2.075zm-2.575 2.133l2.633-2.634v-.087a2.725 2.725 0 00-2.728-2.728 2.725 2.725 0 00-2.728 2.728 2.725 2.725 0 002.728 2.728h.087l.008-.007z" fill="#EAE33C"/><path d="M300.791 40.353c.138.08.29.145.443.196l3.46-3.46a2.415 2.415 0 00-.196-.443l-3.707 3.707zm4.055-2.387c0-.181-.021-.363-.05-.53l-3.207 3.207c.174.037.348.051.53.051h.079l2.648-2.648v-.08zm-.065.581l-2.082 2.082a2.731 2.731 0 002.082-2.082zm-.45-2.17a2.724 2.724 0 10-3.801 3.802l3.801-3.802z" fill="#1E8A3B"/><path d="M307.219 31.61l-3.185 3.186c.196.036.399.05.595.043l2.64-2.64c0-.197 0-.4-.043-.596l-.007.008zm-.022 1.103l-2.068 2.068a2.706 2.706 0 002.075-2.075l-.007.007zm-.072-1.451a2.727 2.727 0 00-4.52-1.074 2.727 2.727 0 001.073 4.52l3.447-3.446z" fill="#91B526"/><path d="M293.086 38.554l-2.075 2.075a2.734 2.734 0 002.075-2.075zm-3.998 1.792c.145.08.298.152.457.203l3.454-3.453a2.654 2.654 0 00-.203-.457l-3.715 3.714.007-.007zm4.063-2.38c0-.181-.022-.355-.051-.53l-3.206 3.207c.174.037.348.051.529.051h.087l2.634-2.634v-.087l.007-.007zm-.522-1.603a2.864 2.864 0 00-.305-.356l-3.852 3.853-.044-.044c.124.13.254.247.399.356l3.809-3.81h-.007zm-1.234-.943a2.725 2.725 0 00-3.518 3.519l3.518-3.52zm-3.38 3.823c.072.138.159.268.254.385l3.823-3.824a2.732 2.732 0 00-.384-.254l-3.686 3.686-.007.007z" fill="#15679F"/></g><defs><clipPath id="clip0_711_703"><path fill="#fff" d="M0 0h380.147v48H0z"/></clipPath></defs></svg>